<svg version="1" xmlns="http://www.w3.org/2000/svg" width="346.667" height="346.667" viewBox="0 0 260.000000 260.000000"><path d="M167.4 94.4c-4.7 2.1-5.2 3.8-.7 2.2 4.3-1.5 8.9-1.4 10.5.2.7.7-.1.9-2.6.7-2.1-.2-5.4.3-7.4 1l-3.7 1.4 4.6-.1c2.5-.1 7.6.7 11.3 1.7 8.3 2.3 13.7 1.1 16.1-3.5 2-3.8 1.9-4.3-.6-3-2.2 1.3-10.1 1.1-13.7-.2-4.5-1.6-10.7-1.7-13.8-.4zM4.9 98.3c-2.1 1-4 2.8-4.3 4-.3 1.2-.6 14.7-.6 30v27.9l2.9 2.9c2.9 2.9 3.1 2.9 14 2.9 10.1 0 11.2-.2 13.1-2.2 1.1-1.2 2-3.1 2.1-4.2 0-1.2.2-3.1.5-4.4.3-1.9 0-2.2-3.1-2.2-3.3 0-3.5.2-3.5 3.3 0 5.1-2.4 7.7-7.1 7.7-4.3 0-9.4-2.1-10.1-4.2-.3-.7-.4-13.8-.4-29.1l.1-27.9 2.4-1.9c2.8-2.3 7.8-2.4 10.6-.3 1.8 1.3 2 2.7 2 11.2v9.7l4.7.3 4.7.3-.4-8.3c-.1-4.6-.3-9.3-.4-10.5-.1-1.2-1.1-3.1-2.2-4.2-3.1-2.9-19.8-3.4-25-.8zM53.4 98.5c-.3.9-8 34.9-9 40-.2 1.1-1.6 7.2-3 13.5-1.5 6.3-2.7 11.7-2.6 12 0 .3.7.6 1.5.8 1.6.3 2.5-1.5 3.3-6.7.3-2 1-5.3 1.5-7.4l1-3.7H62.8l1.1 3.2c.5 1.8 1.6 5.9 2.3 9l1.3 5.8h3.7c2.1 0 3.8-.4 3.8-.9s-1.8-8.7-3.9-18.3c-3.3-14.6-5-22.2-7.6-35.1-.2-1-.6-2.6-.9-3.5-.3-.9-.8-3.3-1.1-5.2-.3-1.9-.8-3.6-1-3.9-.9-.9-6.8-.6-7.1.4zm2.6 11.8c0 .1 1.1 5.7 2.5 12.3 1.3 6.7 2.7 13.6 3 15.4.3 1.8.8 3.7 1.1 4.1 1.1 1.8-2.6 2.3-12.9 2-2.7-.1-2.8-.3-2.1-3.9.3-2 1.2-6.2 1.9-9.2.7-3 2-9 3-13.3 1-4.2 2.1-7.7 2.6-7.7s.9.1.9.3zM82.5 97.8c-.3.3-.5 15.5-.5 33.9V165h12.5c10.4 0 12.5-.2 12.5-1.5 0-1.2-1.5-1.5-7.4-1.5-4.7 0-7.7-.4-8.3-1.3-.5-.7-.9-14.1-.8-32 0-26.8-.1-30.7-1.5-30.8-.8 0-2.5-.2-3.8-.3-1.2-.2-2.4 0-2.7.2zM115.7 97.8c-1.6.3-1.7 3.3-1.7 33.8V165h18.5c15.8 0 18.5-.2 18.5-1.5s-2.3-1.5-14.5-1.5c-10.9 0-14.5-.3-14.6-1.3-.6-6.9-.4-11.9.6-12.7.6-.5 6.2-1.1 12.5-1.2 8-.2 11.5-.7 11.8-1.6.3-.9-2.5-1.2-11.6-1.2-8.4 0-12.2-.4-12.9-1.3-.5-.6-.9-10.2-.8-21.2v-20l14.8-.3c8.7-.1 14.7-.7 14.7-1.2 0-.6.1-1.3.3-1.7.2-.7-32.3-1.1-35.6-.5zM209.6 99.6c-1.4 1.5-2.6 2.9-2.7 3.3-.1.3-.2 12.9-.3 28-.1 29.5.2 31.8 5 34 3.7 1.7 19.5 1.4 22-.4 4.2-2.9 4.5-5.7 4.2-34.9l-.3-27.8-2.8-2.4c-2.6-2.2-3.7-2.4-12.6-2.4-9.3 0-10 .1-12.5 2.6zm17.8 1c2 1.9 1.8-1.2 2 31.4l.2 27.5-2.7 2.7c-2.4 2.4-3 2.6-6 1.8-5.9-1.7-5.9-1.8-5.9-32.5 0-32 .1-32.5 7-32.5 2.2 0 4.5.7 5.4 1.6zM248.8 100.7c-4.8 3-4.9 9.7-.2 12.8 4.7 3.1 11.4-.5 11.4-6.1 0-3.6-1.1-5.4-4.1-6.9-3.5-1.8-3.8-1.8-7.1.2zm7.7 2.7c2.4 2.4 2.5 5.9.3 7.2-1.6 1-2.8-1.8-1.7-3.8 1.3-2.4.3-3.8-2.7-3.8-1.8 0-2.4.6-2.5 2.2-.3 4.6.9 7.6 1.8 5 .4-1 .8-1 1.9-.1 2 1.7 1.7 2.9-.8 2.9-5.2 0-7.6-6.2-3.8-10 2.6-2.6 4.6-2.5 7.5.4zm-3 1.5c.3.5.1 1.2-.5 1.6-.5.3-1-.1-1-.9 0-1.8.6-2.1 1.5-.7zM160.5 108.8c-.2.3.1 1.9.8 3.6.9 2.2 1.3 10.1 1.2 27.8-.1 23.2.1 24.8 1.7 24.8 2.2 0 2 1.2 2.2-18.9.1-12.2.4-16.5 1.4-16.8.6-.3 1.2.1 1.2.7 0 1 13.8 34 14.6 34.9.5.6 9.4.5 10-.2.9-.9 1.1-55.8.2-56.3-1.8-1.1-2.3 3.8-2.3 23.8 0 13.8-.4 21.8-1 21.8-.5.1-5.1-9.9-10.2-22.1-5-12.1-9.4-22.4-9.8-22.7-.7-.7-9.3-1.1-10-.4z"/></svg>