<svg version="1.1" id="Layer_1" xmlns="http://www.w3.org/2000/svg" x="0" y="0" viewBox="0 0 364.8 200.1" style="enable-background:new 0 0 364.8 200.1" xml:space="preserve"><style>.st0{fill:#fff}</style><path class="st0" d="M48.3 66.9h20c4.9 0 11.3 0 14.6 2 3.6 2.2 6.5 6.1 6.5 11.5 0 5.9-3.1 10.3-8.2 12.3v.2c6.8 1.4 10.5 6.5 10.5 13.3 0 8.1-5.8 15.8-16.7 15.8H48.3V66.9zm7.3 23.7h14.7c8.3 0 11.7-3 11.7-8.8 0-7.6-5.4-8.7-11.7-8.7H55.6v17.5zm0 25.2H74c6.3 0 10.3-3.9 10.3-9.9 0-7.2-5.8-9.2-12-9.2H55.6v19.1z"/><path class="st0" d="M110.4 94.5c0 23.1-18.8 41.9-41.9 41.9-23.1 0-41.9-18.8-41.9-41.9 0-23.1 18.8-41.9 41.9-41.9 23.1 0 41.9 18.7 41.9 41.9zM68.5 46.2c-26.7 0-48.3 21.6-48.3 48.3 0 26.7 21.6 48.3 48.3 48.3 26.7 0 48.3-21.6 48.3-48.3-.1-26.7-21.7-48.3-48.3-48.3zM20.3 152.9h96.3v6.3H20.3zM113.2 145.9h.3c.1 0 .2 0 .3-.1.1 0 .2-.1.2-.2.1-.1.1-.2.1-.3 0-.1 0-.2-.1-.3 0-.1-.1-.1-.2-.2-.1 0-.1-.1-.2-.1h-1v1.1h.6zm.3-1.5c.4 0 .7.1.9.2.2.2.3.4.3.7 0 .3-.1.5-.3.7l-.6.3 1 1.5h-.6l-.9-1.4h-.5v1.4h-.5v-3.4h1.2zm-2.4 2.7c.1.3.3.6.5.8.2.2.5.4.8.5.3.1.6.2.9.2.3 0 .6-.1.9-.2.3-.1.5-.3.8-.5.2-.2.4-.5.5-.8.1-.3.2-.6.2-1s-.1-.7-.2-1c-.1-.3-.3-.6-.5-.8-.2-.2-.5-.4-.8-.5-.3-.1-.6-.2-.9-.2-.3 0-.6.1-.9.2-.3.1-.5.3-.8.5-.2.2-.4.5-.5.8-.1.3-.2.6-.2 1s.1.7.2 1m-.5-2.1.6-.9c.3-.3.6-.5.9-.6.3-.1.7-.2 1.1-.2.4 0 .8.1 1.1.2.3.2.6.3.9.6.3.3.5.6.6.9.2.4.2.7.2 1.1 0 .4-.1.8-.2 1.1-.1.4-.4.7-.6.9-.3.3-.6.5-.9.6-.4.1-.7.2-1.1.2-.4 0-.8-.1-1.1-.2-.4-.1-.7-.3-.9-.6-.3-.3-.5-.6-.6-.9-.2-.3-.2-.7-.2-1.1 0-.4.1-.8.2-1.1M32 25c-.2-.4-.5-.7-.9-1-.3-.3-.7-.5-1.2-.6-.4-.2-.9-.2-1.4-.2-.9 0-1.6.2-2.2.5-.5.3-1 .7-1.3 1.3-.4.6-.6 1.2-.8 1.9-.2.7-.3 1.5-.3 2.2 0 .7.1 1.4.3 2.1.2.7.4 1.3.8 1.9.4.6.9 1 1.5 1.3.6.3 1.3.5 2.2.5 1.2 0 2.1-.4 2.7-1.1.7-.7 1.1-1.7 1.2-2.8h3.7c-.1 1.1-.3 2.1-.8 3-.4.9-.9 1.6-1.6 2.2-.7.6-1.4 1.1-2.3 1.4-.9.3-1.9.5-3 .5-1.3 0-2.5-.2-3.6-.7-1.1-.5-2-1.1-2.7-1.9-.7-.8-1.3-1.8-1.7-2.9-.4-1.1-.6-2.3-.6-3.5 0-1.3.2-2.5.6-3.6.4-1.1 1-2.1 1.7-2.9.7-.8 1.6-1.5 2.7-2s2.3-.7 3.6-.7c1 0 1.9.1 2.7.4.9.3 1.6.7 2.3 1.2.7.5 1.2 1.2 1.7 2 .4.8.7 1.7.8 2.7h-3.7c0-.5-.2-.9-.4-1.2zM41.3 34.7c.5.5 1.3.8 2.2.8.7 0 1.3-.2 1.8-.5s.8-.7.9-1.1h3.1c-.5 1.5-1.2 2.6-2.2 3.2-1 .7-2.2 1-3.7 1-1 0-1.9-.2-2.7-.5-.8-.3-1.5-.8-2-1.4-.6-.6-1-1.3-1.3-2.1-.3-.8-.5-1.7-.5-2.7 0-.9.2-1.8.5-2.6s.7-1.5 1.3-2.1c.6-.6 1.2-1.1 2-1.4.8-.3 1.7-.5 2.6-.5 1.1 0 2 .2 2.8.6.8.4 1.5 1 2 1.7s.9 1.5 1.1 2.4c.2.9.3 1.8.2 2.8h-9.1c.2 1.1.4 1.9 1 2.4zm3.9-6.6c-.4-.5-1-.7-1.9-.7-.6 0-1 .1-1.4.3-.4.2-.7.4-.9.7-.2.3-.4.6-.5.9-.1.3-.1.6-.2.8H46c-.1-.9-.4-1.6-.8-2zM54.4 25.1v2.3c.2-.4.4-.8.7-1.1.3-.3.6-.6 1-.9.4-.2.7-.4 1.1-.5.4-.1.8-.2 1.3-.2.2 0 .5 0 .8.1V28c-.2 0-.4-.1-.6-.1H58c-.6 0-1.2.1-1.6.3-.4.2-.8.5-1.1.9-.3.4-.5.8-.6 1.3-.1.5-.2 1-.2 1.6v5.7H51V25.1h3.4zM68.5 25.1v2.3H66v6.2c0 .6.1 1 .3 1.2.2.2.6.3 1.2.3h.6c.2 0 .3 0 .5-.1v2.7c-.3 0-.6.1-1 .1h-1c-.5 0-1 0-1.5-.1s-.9-.2-1.3-.4-.7-.5-.9-.9c-.2-.4-.3-.9-.3-1.5v-7.4h-2.1v-2.3h2.1v-3.8h3.5v3.8h2.4zM70.5 23.2v-2.9H74v2.9h-3.5zm3.5 1.9v12.6h-3.5V25.1H74zM75.3 27.5v-2.3h2.1v-1c0-1.1.3-2 1-2.8.7-.7 1.8-1.1 3.2-1.1h.9c.3 0 .6 0 .9.1V23c-.4 0-.8-.1-1.3-.1s-.8.1-1 .3c-.2.2-.3.6-.3 1.1v.8h2.4v2.3h-2.4v10.3h-3.5V27.5h-2zM85.6 23.2v-2.9h3.5v2.9h-3.5zm3.5 1.9v12.6h-3.5V25.1h3.5zM94.5 34.7c.5.5 1.3.8 2.2.8.7 0 1.3-.2 1.8-.5s.8-.7.9-1.1h3c-.5 1.5-1.2 2.6-2.2 3.2-1 .7-2.2 1-3.7 1-1 0-1.9-.2-2.7-.5-.8-.3-1.5-.8-2-1.4-.6-.6-1-1.3-1.3-2.1-.3-.8-.5-1.7-.5-2.7 0-.9.2-1.8.5-2.6s.7-1.5 1.3-2.1c.6-.6 1.2-1.1 2-1.4.8-.3 1.7-.5 2.6-.5 1.1 0 2 .2 2.8.6.8.4 1.5 1 2 1.7s.9 1.5 1.1 2.4c.2.9.3 1.8.2 2.8h-9.1c.3 1.1.6 1.9 1.1 2.4zm3.9-6.6c-.4-.5-1-.7-1.9-.7-.6 0-1 .1-1.4.3-.4.2-.7.4-.9.7-.2.3-.4.6-.5.9-.1.3-.1.6-.2.8h5.6c.1-.9-.2-1.6-.7-2zM113.3 36.1c-.4.7-.9 1.2-1.6 1.5-.7.3-1.4.5-2.2.5-.9 0-1.8-.2-2.5-.5-.7-.4-1.3-.9-1.8-1.5s-.8-1.3-1-2.2c-.2-.8-.4-1.7-.4-2.5s.1-1.7.4-2.5c.2-.8.6-1.5 1-2.1.5-.6 1-1.1 1.7-1.5.7-.4 1.5-.5 2.4-.5.7 0 1.5.2 2.1.5.7.3 1.2.8 1.6 1.4v-6.3h3.5v17.4h-3.3l.1-1.7zm-.2-6.2c-.1-.5-.3-.9-.5-1.3s-.5-.7-.9-.9c-.4-.2-.8-.3-1.4-.3s-1 .1-1.4.3c-.4.2-.7.5-.9.9-.2.4-.4.8-.5 1.3-.1.5-.2 1-.2 1.5s.1 1 .2 1.5.3.9.5 1.3c.3.4.6.7 1 .9.4.2.8.4 1.4.4.6 0 1-.1 1.4-.3.4-.2.7-.5.9-.9.2-.4.4-.8.5-1.3.1-.5.1-1 .1-1.5 0-.6-.1-1.1-.2-1.6zM28.8 171.7c-.2-1.2-1.3-2.1-2.7-2.1-2.4 0-3.3 2.1-3.3 4.2 0 2 .9 4.1 3.3 4.1 1.6 0 2.6-1.1 2.8-2.7h2.6c-.3 3.1-2.4 5-5.4 5-3.8 0-6-2.8-6-6.4 0-3.6 2.2-6.5 6-6.5 2.7 0 5 1.6 5.3 4.4h-2.6zM37.1 170.7c2.8 0 4.6 1.9 4.6 4.7 0 2.8-1.8 4.7-4.6 4.7s-4.6-1.9-4.6-4.7c0-2.9 1.8-4.7 4.6-4.7zm0 7.5c1.7 0 2.2-1.4 2.2-2.8s-.5-2.9-2.2-2.9c-1.6 0-2.1 1.4-2.1 2.9 0 1.4.5 2.8 2.1 2.8zM43.2 170.9h2.3v1.6c.4-1.1 1.6-1.9 2.8-1.9.2 0 .4 0 .5.1v2.3c-.2-.1-.6-.1-.9-.1-1.8 0-2.4 1.3-2.4 2.9v4h-2.4v-8.9zM49.9 170.9h2.3v1.1c.6-.9 1.5-1.4 2.6-1.4 2.8 0 4 2.2 4 4.8 0 2.4-1.3 4.6-3.9 4.6-1.1 0-2.1-.5-2.7-1.3v4.2h-2.4v-12zm6.6 4.5c0-1.4-.6-2.9-2.1-2.9-1.6 0-2.1 1.4-2.1 2.9 0 1.4.5 2.8 2.1 2.8s2.1-1.4 2.1-2.8zM64.3 170.7c2.8 0 4.6 1.9 4.6 4.7 0 2.8-1.8 4.7-4.6 4.7s-4.6-1.9-4.6-4.7c0-2.9 1.8-4.7 4.6-4.7zm0 7.5c1.7 0 2.2-1.4 2.2-2.8s-.5-2.9-2.2-2.9c-1.6 0-2.1 1.4-2.1 2.9-.1 1.4.4 2.8 2.1 2.8zM70.4 170.9h2.3v1.6c.4-1.1 1.6-1.9 2.8-1.9.2 0 .4 0 .5.1v2.3c-.2-.1-.6-.1-.9-.1-1.8 0-2.4 1.3-2.4 2.9v4h-2.4v-8.9zM76.8 173.7c.1-2.3 2.2-3 4.2-3 1.8 0 3.9.4 3.9 2.5v4.6c0 .8.1 1.6.3 2h-2.5c-.1-.3-.2-.6-.2-.9-.8.8-1.9 1.1-3 1.1-1.7 0-3-.8-3-2.7 0-2 1.5-2.5 3-2.7 1.5-.2 2.9-.2 2.9-1.2s-.7-1.2-1.6-1.2c-.9 0-1.5.4-1.6 1.3h-2.4zm5.7 1.8c-.4.4-1.3.4-2 .5-.8.2-1.4.4-1.4 1.3s.7 1.1 1.5 1.1c1.9 0 2-1.5 2-2v-.9zM89.8 170.9h1.8v1.6h-1.8v4.4c0 .8.2 1 1 1 .3 0 .5 0 .8-.1v1.9c-.4.1-.9.1-1.4.1-1.5 0-2.8-.3-2.8-2.1v-5.2h-1.5v-1.6h1.5v-2.7h2.4v2.7zM95.9 169.6h-2.4v-2h2.4v2zm-2.4 1.3h2.4v8.9h-2.4v-8.9zM102.1 170.7c2.8 0 4.6 1.9 4.6 4.7 0 2.8-1.8 4.7-4.6 4.7s-4.6-1.9-4.6-4.7c0-2.9 1.8-4.7 4.6-4.7zm0 7.5c1.7 0 2.2-1.4 2.2-2.8s-.5-2.9-2.2-2.9c-1.6 0-2.1 1.4-2.1 2.9 0 1.4.5 2.8 2.1 2.8zM108.3 170.9h2.3v1.2h.1c.6-1 1.7-1.5 2.7-1.5 2.6 0 3.2 1.5 3.2 3.7v5.5h-2.4v-5c0-1.5-.4-2.2-1.6-2.2-1.3 0-1.9.7-1.9 2.5v4.7h-2.4v-8.9zM137 152.9h207.4v6.3H137zM136.3 81.4v-2.1h9.3v2.1h-3.4v9.3h-2.5v-9.3h-3.4zM149 79.3v4.3c.3-.5.7-.8 1.1-1 .4-.2.9-.3 1.3-.3.6 0 1.1.1 1.5.2.4.2.7.4.9.7.2.3.4.6.5 1.1.1.4.1.9.1 1.4v5.1h-2.3V86c0-.7-.1-1.2-.3-1.5-.2-.3-.6-.5-1.1-.5-.6 0-1.1.2-1.3.5-.3.4-.4 1-.4 1.8v4.3h-2.3V79.3h2.3zM156.2 81.1v-1.9h2.3v1.9h-2.3zm2.3 1.3v8.2h-2.3v-8.2h2.3zM162.2 88.6c.1.2.2.3.4.4.2.1.3.2.5.2.2.1.4.1.6.1.2 0 .3 0 .5-.1s.3-.1.5-.2.3-.2.4-.3c.1-.1.1-.3.1-.5 0-.3-.2-.6-.7-.8-.5-.2-1.1-.3-1.9-.5-.3-.1-.7-.2-1-.3-.3-.1-.6-.2-.8-.4l-.6-.6c-.1-.2-.2-.6-.2-.9 0-.5.1-1 .3-1.3.2-.3.5-.6.8-.8.3-.2.7-.3 1.1-.4.4-.1.9-.1 1.3-.1s.9 0 1.3.1.8.2 1.1.4c.3.2.6.5.8.8.2.3.3.8.4 1.3H165c0-.4-.2-.7-.5-.9-.3-.2-.6-.2-1.1-.2h-.4c-.1 0-.3.1-.4.1-.1.1-.2.1-.3.2-.1.1-.1.2-.1.4s.1.4.2.5c.1.1.3.2.6.3.2.1.5.2.8.2.3.1.6.1.9.2.3.1.7.2 1 .3.3.1.6.2.8.4.2.2.4.4.6.7s.2.6.2 1c0 .5-.1 1-.3 1.4-.2.4-.5.7-.9.9-.4.2-.8.4-1.2.5-.5.1-.9.1-1.4.1-.5 0-.9 0-1.4-.1-.5-.1-.9-.3-1.2-.5-.4-.2-.6-.5-.9-.9-.2-.4-.4-.8-.4-1.4h2.1c.3.3.4.5.5.7zM177.2 83.9c-.4 0-.7.1-.9.2l-.6.6c-.2.3-.3.5-.3.9-.1.3-.1.6-.1.9 0 .3 0 .6.1.9.1.3.2.6.3.8.1.2.3.5.6.6.2.2.5.2.9.2.5 0 1-.2 1.2-.5s.5-.7.5-1.2h2.2c-.1 1.1-.6 1.9-1.3 2.5-.7.6-1.6.9-2.7.9-.6 0-1.2-.1-1.7-.3-.5-.2-1-.5-1.3-.9-.4-.4-.6-.8-.8-1.3-.2-.5-.3-1.1-.3-1.7 0-.6.1-1.2.3-1.8.2-.5.5-1 .8-1.4.4-.4.8-.7 1.3-.9.5-.2 1.1-.3 1.8-.3.5 0 1 .1 1.4.2.5.1.9.3 1.2.6.4.3.6.6.9 1 .2.4.4.8.4 1.4h-2.2c-.2-.9-.8-1.4-1.7-1.4zM182.4 84.7c.2-.5.5-1 .9-1.4.4-.4.8-.7 1.3-.9.5-.2 1.1-.3 1.8-.3.6 0 1.2.1 1.8.3.5.2 1 .5 1.3.9.4.4.7.8.9 1.4.2.5.3 1.1.3 1.8s-.1 1.3-.3 1.8c-.2.5-.5 1-.9 1.4-.4.4-.8.7-1.3.9-.5.2-1.1.3-1.8.3-.6 0-1.2-.1-1.8-.3-.5-.2-1-.5-1.3-.9-.4-.4-.7-.8-.9-1.4-.2-.5-.3-1.1-.3-1.8 0-.6.1-1.2.3-1.8zm2.1 2.8c.1.3.2.6.3.8l.6.6c.3.1.6.2 1 .2s.7-.1 1-.2c.3-.1.5-.3.6-.6.2-.2.3-.5.3-.8.1-.3.1-.6.1-1 0-.3 0-.7-.1-1-.1-.3-.2-.6-.3-.8l-.6-.6c-.3-.2-.6-.2-1-.2s-.7.1-1 .2c-.3.2-.5.4-.6.6-.2.2-.3.5-.3.8-.1.3-.1.6-.1 1s0 .7.1 1zM194.3 82.4v1.1c.3-.4.7-.8 1.1-1 .4-.2.9-.4 1.4-.4.5 0 1 .1 1.4.3s.8.6 1 1.1c.2-.4.6-.7 1-1 .4-.3.9-.4 1.5-.4.4 0 .8.1 1.2.2.4.1.7.3 1 .5.3.2.5.5.6.9.1.4.2.8.2 1.4v5.5h-2.3V85.2c0-.2-.1-.5-.2-.6-.1-.2-.2-.3-.4-.4-.2-.1-.4-.2-.8-.2-.3 0-.6.1-.8.2-.2.1-.4.3-.5.5-.1.2-.2.4-.2.7 0 .2-.1.5-.1.8v4.6h-2.3v-5.5c0-.2-.1-.5-.1-.7-.1-.2-.2-.4-.4-.5-.2-.1-.5-.2-.8-.2-.1 0-.2 0-.4.1-.2 0-.3.1-.5.3-.2.1-.3.3-.4.6-.1.2-.2.6-.2 1v4.8H192v-8.2h2.3zM208.7 82.4v1.1c.3-.4.6-.8 1.1-1 .4-.2.9-.3 1.4-.3.6 0 1.2.1 1.7.4.5.2.9.6 1.2 1 .3.4.5.9.7 1.4.1.5.2 1.1.2 1.7 0 .6-.1 1.1-.2 1.6s-.4 1-.7 1.4c-.3.4-.7.7-1.1.9-.5.2-1 .4-1.6.4-.5 0-1-.1-1.4-.3-.4-.2-.8-.5-1.1-.9v3.9h-2.3V82.4h2.1zm2.9 6.5c.2-.1.5-.3.6-.6.2-.2.3-.5.3-.8.1-.3.1-.6.1-1 0-.3 0-.7-.1-1l-.3-.9c-.2-.2-.4-.5-.6-.6-.2-.2-.6-.2-.9-.2-.4 0-.7.1-.9.2-.2.2-.5.4-.6.6-.2.2-.3.5-.3.8-.1.3-.1.6-.1 1 0 .3 0 .7.1 1s.2.6.3.8l.6.6c.3.1.6.2.9.2.4.2.7.1.9-.1zM216.2 84.9c0-.5.2-1 .4-1.3.2-.4.5-.6.9-.8.4-.2.8-.4 1.2-.5.5-.1.9-.1 1.4-.1.4 0 .8 0 1.3.1l1.2.3c.4.2.6.4.9.7.2.3.3.7.3 1.2v4.3c0 .4 0 .7.1 1.1 0 .3.1.6.2.8h-2.3c0-.1-.1-.3-.1-.4 0-.1 0-.3-.1-.4-.4.4-.8.6-1.3.8-.5.1-1 .2-1.5.2-.4 0-.8 0-1.1-.1-.3-.1-.6-.2-.9-.4-.3-.2-.5-.5-.6-.8-.1-.3-.2-.7-.2-1.1 0-.5.1-.9.2-1.2.2-.3.4-.5.6-.7.3-.2.6-.3.9-.4.3-.1.7-.2 1-.2.3-.1.7-.1 1-.1.3 0 .6-.1.9-.1.3-.1.5-.2.6-.3.1-.1.2-.3.2-.5s0-.4-.1-.6c-.1-.1-.2-.3-.3-.3-.1-.1-.3-.1-.5-.2h-.6c-.4 0-.8.1-1.1.3-.3.2-.4.5-.4 1h-2.2zm5.2 1.7c-.1.1-.2.2-.4.2-.1 0-.3.1-.5.1s-.3.1-.5.1-.4 0-.5.1c-.2 0-.3.1-.5.1-.2.1-.3.1-.4.2l-.3.3c-.1.1-.1.3-.1.5s0 .4.1.5l.3.3c.1.1.3.1.4.2h.5c.4 0 .8-.1 1-.2.2-.1.4-.3.5-.5.1-.2.2-.4.2-.6v-1.3zM227.6 82.4v1.1c.3-.5.7-.8 1.1-1 .5-.2.9-.3 1.4-.3.6 0 1.1.1 1.5.2.4.2.7.4.9.7.2.3.4.6.5 1.1.1.4.1.9.1 1.4v5.1h-2.3V86c0-.7-.1-1.2-.3-1.5-.2-.3-.6-.5-1.1-.5-.6 0-1.1.2-1.3.5-.3.4-.4 1-.4 1.8v4.3h-2.3v-8.2h2.2zM237.9 93.1c-.4.3-1 .4-1.8.4h-.7c-.2 0-.5 0-.7-.1v-1.9c.2 0 .4 0 .7.1h.7c.3 0 .5-.1.7-.4.1-.2.2-.4.2-.7 0-.2 0-.4-.1-.5l-2.9-7.7h2.4l1.9 5.6 1.8-5.6h2.3l-3.4 9.3c-.3.7-.7 1.2-1.1 1.5zM249.7 82.4v1.1c.3-.4.7-.8 1.1-1 .4-.2.9-.4 1.4-.4.5 0 1 .1 1.4.3.4.2.8.6 1 1.1.2-.4.6-.7 1-1 .4-.3.9-.4 1.5-.4.4 0 .8.1 1.2.2.4.1.7.3 1 .5.3.2.5.5.6.9.1.4.2.8.2 1.4v5.5h-2.3V85.2c0-.2-.1-.5-.2-.6-.1-.2-.2-.3-.4-.4-.2-.1-.4-.2-.8-.2-.3 0-.6.1-.8.2-.2.1-.4.3-.5.5-.1.2-.2.4-.2.7 0 .2-.1.5-.1.8v4.6h-2.3v-5.5c0-.2-.1-.5-.1-.7s-.2-.4-.4-.5c-.2-.1-.5-.2-.8-.2-.1 0-.2 0-.4.1-.2 0-.3.1-.5.3-.2.1-.3.3-.4.6-.1.2-.2.6-.2 1v4.8h-2.3v-8.2h2.3zM264.4 88.7c.3.3.8.5 1.5.5.5 0 .8-.1 1.2-.3.3-.2.5-.5.6-.7h2c-.3 1-.8 1.7-1.5 2.1-.7.4-1.5.6-2.4.6-.6 0-1.2-.1-1.8-.3-.5-.2-1-.5-1.3-.9-.4-.4-.6-.8-.8-1.4-.2-.5-.3-1.1-.3-1.8 0-.6.1-1.2.3-1.7.2-.5.5-1 .9-1.4.4-.4.8-.7 1.3-.9.5-.2 1.1-.3 1.7-.3.7 0 1.3.1 1.8.4.5.3.9.6 1.3 1.1.3.5.6 1 .7 1.6.1.6.2 1.2.2 1.8h-5.9c0 .7.1 1.2.5 1.6zm2.5-4.4c-.3-.3-.7-.4-1.2-.4-.4 0-.7.1-.9.2-.2.1-.4.3-.6.5l-.3.6c-.1.2-.1.4-.1.5h3.7c-.1-.6-.3-1.1-.6-1.4zM273.5 88.7c.3.3.8.5 1.5.5.5 0 .8-.1 1.2-.3.3-.2.5-.5.6-.7h2c-.3 1-.8 1.7-1.5 2.1-.7.4-1.5.6-2.4.6-.6 0-1.2-.1-1.8-.3s-1-.5-1.3-.9c-.4-.4-.6-.8-.8-1.4-.2-.5-.3-1.1-.3-1.8 0-.6.1-1.2.3-1.7.2-.5.5-1 .9-1.4.4-.4.8-.7 1.3-.9.5-.2 1.1-.3 1.7-.3.7 0 1.3.1 1.8.4.5.3.9.6 1.3 1.1.3.5.6 1 .7 1.6.1.6.2 1.2.2 1.8H273c0 .7.2 1.2.5 1.6zm2.6-4.4c-.3-.3-.7-.4-1.2-.4-.4 0-.7.1-.9.2-.2.1-.4.3-.6.5l-.3.6c-.1.2-.1.4-.1.5h3.7c-.2-.6-.3-1.1-.6-1.4zM284.8 82.4v1.5h-1.7V88c0 .4.1.6.2.8.1.1.4.2.8.2h.7v1.8c-.2 0-.4.1-.6.1h-.7c-.4 0-.7 0-1-.1-.3 0-.6-.1-.8-.3-.2-.1-.4-.3-.6-.6-.1-.3-.2-.6-.2-1V84h-1.4v-1.5h1.4V80h2.3v2.5h1.6zM287.8 88.6c.1.2.2.3.4.4.2.1.3.2.5.2.2.1.4.1.6.1.2 0 .3 0 .5-.1s.3-.1.5-.2.3-.2.4-.3c.1-.1.1-.3.1-.5 0-.3-.2-.6-.7-.8-.5-.2-1.1-.3-1.9-.5-.3-.1-.7-.2-1-.3-.3-.1-.6-.2-.8-.4l-.6-.6c-.1-.2-.2-.6-.2-.9 0-.5.1-1 .3-1.3.2-.3.5-.6.8-.8.3-.2.7-.3 1.1-.4.4-.1.9-.1 1.3-.1s.9 0 1.3.1.8.2 1.1.4c.3.2.6.5.8.8.2.3.3.8.4 1.3h-2.1c0-.4-.2-.7-.5-.9-.3-.2-.6-.2-1.1-.2h-.4c-.1 0-.3.1-.4.1-.1.1-.2.1-.3.2-.1.1-.1.2-.1.4s.1.4.2.5c.1.1.3.2.6.3.2.1.5.2.8.2.3.1.6.1.9.2.3.1.7.2 1 .3.3.1.6.2.8.4.2.2.4.4.6.7s.2.6.2 1c0 .5-.1 1-.3 1.4-.2.4-.5.7-.9.9-.4.2-.8.4-1.2.5-.5.1-.9.1-1.4.1-.5 0-.9 0-1.4-.1-.5-.1-.9-.3-1.2-.5-.4-.2-.6-.5-.9-.9-.2-.4-.4-.8-.4-1.4h2.1c.3.3.4.5.5.7zM303.3 82.4v1.5h-1.7V88c0 .4.1.6.2.8.1.1.4.2.8.2h.7v1.8c-.2 0-.4.1-.6.1h-.7c-.4 0-.7 0-1-.1-.3 0-.6-.1-.8-.3-.2-.1-.4-.3-.6-.6-.1-.3-.2-.6-.2-1V84H298v-1.5h1.4V80h2.3v2.5h1.6zM306.7 79.3v4.3c.3-.5.7-.8 1.1-1 .4-.2.9-.3 1.3-.3.6 0 1.1.1 1.5.2.4.2.7.4.9.7.2.3.4.6.5 1.1.1.4.1.9.1 1.4v5.1h-2.3V86c0-.7-.1-1.2-.3-1.5-.2-.3-.6-.5-1.1-.5-.6 0-1.1.2-1.3.5-.3.4-.4 1-.4 1.8v4.3h-2.3V79.3h2.3zM316.3 88.7c.3.3.8.5 1.5.5.5 0 .8-.1 1.2-.3.3-.2.5-.5.6-.7h2c-.3 1-.8 1.7-1.5 2.1-.7.4-1.5.6-2.4.6-.6 0-1.2-.1-1.8-.3-.5-.2-1-.5-1.3-.9-.4-.4-.6-.8-.8-1.4-.2-.5-.3-1.1-.3-1.8 0-.6.1-1.2.3-1.7.2-.5.5-1 .9-1.4.4-.4.8-.7 1.3-.9.5-.2 1.1-.3 1.7-.3.7 0 1.3.1 1.8.4.5.3.9.6 1.3 1.1.3.5.6 1 .7 1.6.1.6.2 1.2.2 1.8h-5.9c0 .7.2 1.2.5 1.6zm2.6-4.4c-.3-.3-.7-.4-1.2-.4-.4 0-.7.1-.9.2-.2.1-.4.3-.6.5l-.3.6c-.1.2-.1.4-.1.5h3.7c-.2-.6-.4-1.1-.6-1.4zM139.2 100.2v4.3c.3-.5.7-.8 1.1-1 .4-.2.9-.3 1.3-.3.6 0 1.1.1 1.5.2.4.2.7.4.9.7.2.3.4.6.5 1.1.1.4.1.9.1 1.4v5.1h-2.3v-4.6c0-.7-.1-1.2-.3-1.5-.2-.3-.6-.5-1.1-.5-.6 0-1.1.2-1.3.5-.3.4-.4 1-.4 1.8v4.3H137v-11.4h2.2zM146.5 102.1v-1.9h2.3v1.9h-2.3zm2.2 1.3v8.2h-2.3v-8.2h2.3zM158.3 112.2c-.1.4-.3.8-.6 1.2-.3.4-.7.7-1.3.9-.6.3-1.3.4-2.3.4-.4 0-.8-.1-1.2-.2-.4-.1-.8-.3-1.1-.5-.3-.2-.6-.5-.9-.8-.2-.3-.4-.7-.4-1.2h2.2c.1.4.3.7.6.9.3.2.7.2 1.1.2.6 0 1.1-.2 1.4-.6.3-.4.4-.9.4-1.4V110c-.2.4-.6.8-1 1-.5.2-.9.3-1.4.3-.6 0-1.1-.1-1.6-.3-.4-.2-.8-.5-1.1-.9-.3-.4-.5-.8-.6-1.3-.1-.5-.2-1-.2-1.6 0-.5.1-1 .2-1.5.2-.5.4-.9.7-1.3.3-.4.7-.7 1.1-.9.4-.2.9-.3 1.5-.3.5 0 1 .1 1.4.3s.8.5 1 1v-1.1h2.1v7.7c.1.3.1.7 0 1.1zm-3.1-2.7c.2-.1.4-.3.6-.5.2-.2.3-.5.4-.7.1-.3.1-.6.1-.9 0-.3 0-.7-.1-1-.1-.3-.2-.6-.3-.8-.1-.2-.3-.4-.6-.6-.2-.1-.6-.2-.9-.2-.3 0-.6.1-.8.2-.2.1-.4.3-.6.5-.2.2-.3.5-.3.7-.1.3-.1.6-.1.9 0 .3 0 .6.1.9.1.3.2.6.3.8.1.2.3.4.6.6.2.1.5.2.9.2.2 0 .5 0 .7-.1zM162.5 100.2v4.3c.3-.5.7-.8 1.1-1 .4-.2.9-.3 1.3-.3.6 0 1.1.1 1.5.2.4.2.7.4.9.7.2.3.4.6.5 1.1.1.4.1.9.1 1.4v5.1h-2.3v-4.6c0-.7-.1-1.2-.3-1.5-.2-.3-.6-.5-1.1-.5-.6 0-1.1.2-1.3.5-.3.4-.4 1-.4 1.8v4.3h-2.3v-11.4h2.3zM172.1 109.6c.3.3.8.5 1.5.5.5 0 .8-.1 1.2-.3.3-.2.5-.5.6-.7h2c-.3 1-.8 1.7-1.5 2.1-.7.4-1.5.6-2.4.6-.6 0-1.2-.1-1.8-.3-.5-.2-1-.5-1.3-.9-.4-.4-.6-.8-.8-1.4-.2-.5-.3-1.1-.3-1.8 0-.6.1-1.2.3-1.7.2-.5.5-1 .9-1.4.4-.4.8-.7 1.3-.9.5-.2 1.1-.3 1.7-.3.7 0 1.3.1 1.8.4.5.3.9.6 1.3 1.1.3.5.6 1 .7 1.6.1.6.2 1.2.2 1.8h-5.9c0 .8.2 1.3.5 1.6zm2.6-4.3c-.3-.3-.7-.4-1.2-.4-.4 0-.7.1-.9.2-.2.1-.4.3-.6.5l-.3.6c-.1.2-.1.4-.1.5h3.7c-.2-.7-.4-1.1-.6-1.4zM180.7 109.5c.1.2.2.3.4.4.2.1.3.2.5.2.2.1.4.1.6.1.2 0 .3 0 .5-.1s.3-.1.5-.2.3-.2.4-.3c.1-.1.1-.3.1-.5 0-.3-.2-.6-.7-.8-.5-.2-1.1-.3-1.9-.5-.3-.1-.7-.2-1-.3-.3-.1-.6-.2-.8-.4l-.6-.6c-.1-.2-.2-.6-.2-.9 0-.5.1-1 .3-1.3.2-.3.5-.6.8-.8.3-.2.7-.3 1.1-.4.4-.1.9-.1 1.3-.1s.9 0 1.3.1.8.2 1.1.4c.3.2.6.5.8.8.2.3.3.8.4 1.3h-2.1c0-.4-.2-.7-.5-.9-.3-.2-.6-.2-1.1-.2h-.4c-.1 0-.3.1-.4.1-.1.1-.2.1-.3.2-.1.1-.1.2-.1.4s.1.4.2.5c.1.1.3.2.6.3.2.1.5.2.8.2.3.1.6.1.9.2.3.1.7.2 1 .3.3.1.6.2.8.4.2.2.4.4.6.7s.2.6.2 1c0 .5-.1 1-.3 1.4-.2.4-.5.7-.9.9-.4.2-.8.4-1.2.5-.5.1-.9.1-1.4.1-.5 0-.9 0-1.4-.1-.5-.1-.9-.3-1.2-.5-.4-.2-.6-.5-.9-.9-.2-.4-.4-.8-.4-1.4h2.1c.4.4.4.6.5.7zM191.9 103.4v1.5h-1.7v4.1c0 .4.1.6.2.8.1.1.4.2.8.2h.7v1.8c-.2 0-.4.1-.6.1h-.7c-.4 0-.7 0-1-.1-.3 0-.6-.1-.8-.3-.2-.1-.4-.3-.6-.6-.1-.3-.2-.6-.2-1V105h-1.4v-1.5h1.4V101h2.3v2.5h1.6zM199.3 109.5c.1.2.2.3.4.4.2.1.3.2.5.2.2.1.4.1.6.1.2 0 .3 0 .5-.1.2 0 .3-.1.5-.2s.3-.2.4-.3c.1-.1.1-.3.1-.5 0-.3-.2-.6-.7-.8-.5-.2-1.1-.3-1.9-.5-.3-.1-.7-.2-1-.3-.3-.1-.6-.2-.8-.4l-.6-.6c-.1-.2-.2-.6-.2-.9 0-.5.1-1 .3-1.3.2-.3.5-.6.8-.8.3-.2.7-.3 1.1-.4.4-.1.9-.1 1.3-.1s.9 0 1.3.1.8.2 1.1.4c.3.2.6.5.8.8.2.3.3.8.4 1.3h-2.1c0-.4-.2-.7-.5-.9-.3-.2-.6-.2-1.1-.2h-.4c-.1 0-.3.1-.4.1-.1.1-.2.1-.3.2-.1.1-.1.2-.1.4s.1.4.2.5c.1.1.3.2.6.3.2.1.5.2.8.2.3.1.6.1.9.2.3.1.7.2 1 .3.3.1.6.2.8.4.2.2.4.4.6.7s.2.6.2 1c0 .5-.1 1-.3 1.4-.2.4-.5.7-.9.9-.4.2-.8.4-1.2.5-.5.1-.9.1-1.4.1-.5 0-.9 0-1.4-.1-.5-.1-.9-.3-1.2-.5-.4-.2-.6-.5-.9-.9-.2-.4-.4-.8-.4-1.4h2.1c.4.4.4.6.5.7zM210.5 103.4v1.5h-1.7v4.1c0 .4.1.6.2.8.1.1.4.2.8.2h.7v1.8c-.2 0-.4.1-.6.1h-.7c-.4 0-.7 0-1-.1-.3 0-.6-.1-.8-.3-.2-.1-.4-.3-.6-.6-.1-.3-.2-.6-.2-1V105h-1.4v-1.5h1.4V101h2.3v2.5h1.6zM211.5 105.9c0-.5.2-1 .4-1.3.2-.4.5-.6.9-.8.4-.2.8-.4 1.2-.5.5-.1.9-.1 1.4-.1.4 0 .8 0 1.3.1l1.2.3c.4.2.6.4.9.7.2.3.3.7.3 1.2v4.3c0 .4 0 .7.1 1.1 0 .3.1.6.2.8H217c0-.1-.1-.3-.1-.4 0-.1 0-.3-.1-.4-.4.4-.8.6-1.3.8-.5.1-1 .2-1.5.2-.4 0-.8 0-1.1-.1-.3-.1-.6-.2-.9-.4-.3-.2-.5-.5-.6-.8-.1-.3-.2-.7-.2-1.1 0-.5.1-.9.2-1.2.2-.3.4-.5.6-.7.3-.2.6-.3.9-.4.3-.1.7-.2 1-.2.3-.1.7-.1 1-.1.3 0 .6-.1.9-.1.3-.1.5-.2.6-.3.1-.1.2-.3.2-.5s0-.4-.1-.6c-.1-.1-.2-.3-.3-.3-.1-.1-.3-.1-.5-.2h-.6c-.4 0-.8.1-1.1.3-.3.2-.4.5-.4 1h-2.1zm5.2 1.7c-.1.1-.2.2-.4.2-.1 0-.3.1-.5.1s-.3.1-.5.1-.4 0-.5.1c-.2 0-.3.1-.5.1-.2.1-.3.1-.4.2l-.3.3c-.1.1-.1.3-.1.5s0 .4.1.5l.3.3c.1.1.3.1.4.2h.5c.4 0 .8-.1 1-.2.2-.1.4-.3.5-.5.1-.2.2-.4.2-.6v-1.3zM222.9 103.4v1.1c.3-.5.7-.8 1.1-1 .5-.2.9-.3 1.4-.3.6 0 1.1.1 1.5.2.4.2.7.4.9.7.2.3.4.6.5 1.1.1.4.1.9.1 1.4v5.1h-2.3v-4.6c0-.7-.1-1.2-.3-1.5-.2-.3-.6-.5-1.1-.5-.6 0-1.1.2-1.3.5-.3.4-.4 1-.4 1.8v4.3h-2.3v-8.2h2.2zM236 110.5c-.3.4-.6.8-1 1-.4.2-.9.3-1.5.3s-1.2-.1-1.6-.4c-.5-.2-.9-.6-1.2-1-.3-.4-.5-.9-.7-1.4-.2-.5-.2-1.1-.2-1.7 0-.6.1-1.1.2-1.6.2-.5.4-1 .7-1.4.3-.4.7-.7 1.1-.9.5-.2 1-.4 1.6-.4.5 0 1 .1 1.4.3.4.2.8.5 1 .9v-4.1h2.3v11.4H236v-1zm-.1-4c-.1-.3-.2-.6-.3-.8l-.6-.6c-.2-.1-.6-.2-.9-.2-.4 0-.7.1-.9.2-.3.1-.5.3-.6.6-.2.2-.3.5-.3.8-.1.3-.1.6-.1 1 0 .3 0 .6.1 1s.2.6.4.9c.2.2.4.5.6.6.2.2.5.2.9.2s.7-.1.9-.2c.2-.1.4-.3.6-.6.1-.2.3-.5.3-.9.1-.3.1-.6.1-1-.1-.4-.1-.7-.2-1zM239.8 105.9c0-.5.2-1 .4-1.3.2-.4.5-.6.9-.8.4-.2.8-.4 1.2-.5.5-.1.9-.1 1.4-.1.4 0 .8 0 1.3.1l1.2.3c.4.2.6.4.9.7.2.3.3.7.3 1.2v4.3c0 .4 0 .7.1 1.1 0 .3.1.6.2.8h-2.3c0-.1-.1-.3-.1-.4 0-.1 0-.3-.1-.4-.4.4-.8.6-1.3.8-.5.1-1 .2-1.5.2-.4 0-.8 0-1.1-.1-.3-.1-.6-.2-.9-.4-.3-.2-.5-.5-.6-.8-.1-.3-.2-.7-.2-1.1 0-.5.1-.9.2-1.2.2-.3.4-.5.6-.7.3-.2.6-.3.9-.4.3-.1.7-.2 1-.2.3-.1.7-.1 1-.1.3 0 .6-.1.9-.1.3-.1.5-.2.6-.3.1-.1.2-.3.2-.5s0-.4-.1-.6c-.1-.1-.2-.3-.3-.3-.1-.1-.3-.1-.5-.2h-.6c-.4 0-.8.1-1.1.3-.3.2-.4.5-.4 1h-2.2zm5.2 1.7c-.1.1-.2.2-.4.2-.1 0-.3.1-.5.1s-.3.1-.5.1-.4 0-.5.1c-.2 0-.3.1-.5.1-.2.1-.3.1-.4.2l-.3.3c-.1.1-.1.3-.1.5s0 .4.1.5l.3.3c.1.1.3.1.4.2h.5c.4 0 .8-.1 1-.2.2-.1.4-.3.5-.5.1-.2.2-.4.2-.6v-1.3zM251.2 103.4v1.5c.1-.3.2-.5.4-.7l.6-.6c.2-.2.5-.3.7-.4.3-.1.5-.1.8-.1.1 0 .3 0 .5.1v2.1c-.1 0-.2 0-.4-.1h-.4c-.4 0-.8.1-1.1.2-.3.1-.5.3-.7.6-.2.2-.3.5-.4.8-.1.3-.1.7-.1 1v3.7H249v-8.2h2.2zM260.8 110.5c-.3.4-.6.8-1 1-.4.2-.9.3-1.5.3s-1.2-.1-1.6-.4c-.5-.2-.9-.6-1.2-1s-.5-.9-.7-1.4c-.2-.5-.2-1.1-.2-1.7 0-.6.1-1.1.2-1.6.2-.5.4-1 .7-1.4.3-.4.7-.7 1.1-.9.5-.2 1-.4 1.6-.4.5 0 1 .1 1.4.3s.8.5 1 .9v-4.1h2.3v11.4h-2.1v-1zm-.1-4c-.1-.3-.2-.6-.3-.8l-.6-.6c-.2-.2-.6-.2-.9-.2-.4 0-.7.1-.9.2-.3.1-.5.3-.6.6-.2.2-.3.5-.3.8-.1.3-.1.6-.1 1 0 .3 0 .6.1 1s.2.6.4.9c.2.2.4.5.6.6.2.2.5.2.9.2s.7-.1.9-.2c.2-.1.4-.3.6-.6.1-.2.3-.5.3-.9.1-.3.1-.6.1-1-.1-.4-.1-.7-.2-1zM266.6 109.5c.1.2.2.3.4.4.2.1.3.2.5.2.2.1.4.1.6.1.2 0 .3 0 .5-.1s.3-.1.5-.2.3-.2.4-.3c.1-.1.1-.3.1-.5 0-.3-.2-.6-.7-.8-.5-.2-1.1-.3-1.9-.5-.3-.1-.7-.2-1-.3-.3-.1-.6-.2-.8-.4l-.6-.6c-.1-.2-.2-.6-.2-.9 0-.5.1-1 .3-1.3.2-.3.5-.6.8-.8.3-.2.7-.3 1.1-.4.4-.1.9-.1 1.3-.1s.9 0 1.3.1.8.2 1.1.4c.3.2.6.5.8.8.2.3.3.8.4 1.3h-2.1c0-.4-.2-.7-.5-.9-.3-.2-.6-.2-1.1-.2h-.4c-.1 0-.3.1-.4.1-.1.1-.2.1-.3.2-.1.1-.1.2-.1.4s.1.4.2.5c.1.1.3.2.6.3.2.1.5.2.8.2.3.1.6.1.9.2.3.1.7.2 1 .3.3.1.6.2.8.4.2.2.4.4.6.7s.2.6.2 1c0 .5-.1 1-.3 1.4-.2.4-.5.7-.9.9-.4.2-.8.4-1.2.5-.5.1-.9.1-1.4.1-.5 0-.9 0-1.4-.1-.5-.1-.9-.3-1.2-.5-.4-.2-.6-.5-.9-.9-.2-.4-.4-.8-.4-1.4h2.1c.3.4.4.6.5.7zM277.7 105.7c.2-.5.5-1 .9-1.4.4-.4.8-.7 1.3-.9.5-.2 1.1-.3 1.8-.3.6 0 1.2.1 1.8.3.5.2 1 .5 1.3.9.4.4.7.8.9 1.4.2.5.3 1.1.3 1.8s-.1 1.3-.3 1.8c-.2.5-.5 1-.9 1.4-.4.4-.8.7-1.3.9-.5.2-1.1.3-1.8.3-.6 0-1.2-.1-1.8-.3-.5-.2-1-.5-1.3-.9-.4-.4-.7-.8-.9-1.4-.2-.5-.3-1.1-.3-1.8s.1-1.3.3-1.8zm2.1 2.7c.1.3.2.6.3.8l.6.6c.3.1.6.2 1 .2s.7-.1 1-.2c.3-.1.5-.3.6-.6.2-.2.3-.5.3-.8.1-.3.1-.6.1-1 0-.3 0-.7-.1-1-.1-.3-.2-.6-.3-.8l-.6-.6c-.3-.2-.6-.2-1-.2s-.7.1-1 .2c-.3.2-.5.4-.6.6-.2.2-.3.5-.3.8-.1.3-.1.6-.1 1s0 .7.1 1zM286.5 104.9v-1.5h1.4v-.6c0-.7.2-1.3.7-1.8.5-.5 1.1-.7 2.1-.7h1.2v1.7h-.8c-.3 0-.5.1-.7.2-.1.1-.2.4-.2.7v.5h1.6v1.5h-1.6v6.7h-2.3v-6.7h-1.4zM299 109.5c.1.2.2.3.4.4.2.1.3.2.5.2.2.1.4.1.6.1.2 0 .3 0 .5-.1s.3-.1.5-.2.3-.2.4-.3c.1-.1.1-.3.1-.5 0-.3-.2-.6-.7-.8-.5-.2-1.1-.3-1.9-.5-.3-.1-.7-.2-1-.3-.3-.1-.6-.2-.8-.4l-.6-.6c-.1-.2-.2-.6-.2-.9 0-.5.1-1 .3-1.3.2-.3.5-.6.8-.8.3-.2.7-.3 1.1-.4.4-.1.9-.1 1.3-.1s.9 0 1.3.1.8.2 1.1.4c.3.2.6.5.8.8.2.3.3.8.4 1.3H302c0-.4-.2-.7-.5-.9-.3-.2-.6-.2-1.1-.2h-.4c-.1 0-.3.1-.4.1-.1.1-.2.1-.3.2-.1.1-.1.2-.1.4s.1.4.2.5c.1.1.3.2.6.3.2.1.5.2.8.2.3.1.6.1.9.2.3.1.7.2 1 .3.3.1.6.2.8.4.2.2.4.4.6.7s.2.6.2 1c0 .5-.1 1-.3 1.4-.2.4-.5.7-.9.9-.4.2-.8.4-1.2.5-.5.1-.9.1-1.4.1-.5 0-.9 0-1.4-.1-.5-.1-.9-.3-1.2-.5-.4-.2-.6-.5-.9-.9-.2-.4-.4-.8-.4-1.4h2.1c.2.4.2.6.3.7zM305.7 105.7c.2-.5.5-1 .9-1.4.4-.4.8-.7 1.3-.9s1.1-.3 1.8-.3c.6 0 1.2.1 1.8.3.5.2 1 .5 1.3.9.4.4.7.8.9 1.4.2.5.3 1.1.3 1.8s-.1 1.3-.3 1.8c-.2.5-.5 1-.9 1.4-.4.4-.8.7-1.3.9-.5.2-1.1.3-1.8.3-.6 0-1.2-.1-1.8-.3-.5-.2-1-.5-1.3-.9-.4-.4-.7-.8-.9-1.4-.2-.5-.3-1.1-.3-1.8s.1-1.3.3-1.8zm2.1 2.7c.1.3.2.6.3.8l.6.6c.3.1.6.2 1 .2s.7-.1 1-.2c.3-.1.5-.3.6-.6.2-.2.3-.5.3-.8.1-.3.1-.6.1-1 0-.3 0-.7-.1-1-.1-.3-.2-.6-.3-.8l-.6-.6c-.3-.2-.6-.2-1-.2s-.7.1-1 .2c-.3.2-.5.4-.6.6-.2.2-.3.5-.3.8-.1.3-.1.6-.1 1s0 .7.1 1zM319.3 104.8c-.4 0-.7.1-.9.2l-.6.6c-.2.3-.3.5-.3.9-.1.3-.1.6-.1.9 0 .3 0 .6.1.9.1.3.2.6.3.8.1.2.3.5.6.6.2.2.5.2.9.2.5 0 1-.2 1.2-.5.3-.3.5-.7.5-1.2h2.2c-.1 1.1-.6 1.9-1.3 2.5-.7.6-1.6.9-2.7.9-.6 0-1.2-.1-1.7-.3-.5-.2-1-.5-1.3-.9-.4-.4-.6-.8-.8-1.3-.2-.5-.3-1.1-.3-1.7 0-.6.1-1.2.3-1.8.2-.5.5-1 .8-1.4.4-.4.8-.7 1.3-.9.5-.2 1.1-.3 1.8-.3.5 0 1 .1 1.4.2.5.1.9.3 1.2.6.4.3.6.6.9 1 .2.4.4.8.4 1.4H321c-.2-.9-.7-1.4-1.7-1.4zM324.6 102.1v-1.9h2.3v1.9h-2.3zm2.3 1.3v8.2h-2.3v-8.2h2.3zM328.5 105.9c0-.5.2-1 .4-1.3.2-.4.5-.6.9-.8.4-.2.8-.4 1.2-.5.5-.1.9-.1 1.4-.1.4 0 .8 0 1.3.1l1.2.3c.4.2.6.4.9.7.2.3.3.7.3 1.2v4.3c0 .4 0 .7.1 1.1 0 .3.1.6.2.8H334c0-.1-.1-.3-.1-.4 0-.1 0-.3-.1-.4-.4.4-.8.6-1.3.8-.5.1-1 .2-1.5.2-.4 0-.8 0-1.1-.1-.3-.1-.6-.2-.9-.4-.3-.2-.5-.5-.6-.8-.1-.3-.2-.7-.2-1.1 0-.5.1-.9.2-1.2.2-.3.4-.5.6-.7.3-.2.6-.3.9-.4.3-.1.7-.2 1-.2.3-.1.7-.1 1-.1.3 0 .6-.1.9-.1.3-.1.5-.2.6-.3.1-.1.2-.3.2-.5s0-.4-.1-.6c-.1-.1-.2-.3-.3-.3-.1-.1-.3-.1-.5-.2h-.6c-.4 0-.8.1-1.1.3-.3.2-.4.5-.4 1h-2.1zm5.3 1.7c-.1.1-.2.2-.4.2-.1 0-.3.1-.5.1s-.3.1-.5.1-.4 0-.5.1c-.2 0-.3.1-.5.1-.2.1-.3.1-.4.2l-.3.3c-.1.1-.1.3-.1.5s0 .4.1.5l.3.3c.1.1.3.1.4.2h.5c.4 0 .8-.1 1-.2.2-.1.4-.3.5-.5.1-.2.2-.4.2-.6v-1.3zM340.1 100.2v11.4h-2.3v-11.4h2.3zM136.9 126.8c0-.5.2-1 .4-1.3.2-.4.5-.6.9-.8.4-.2.8-.4 1.2-.5.5-.1.9-.1 1.4-.1.4 0 .8 0 1.3.1l1.2.3c.4.2.6.4.9.7.2.3.3.7.3 1.2v4.3c0 .4 0 .7.1 1.1 0 .3.1.6.2.8h-2.3c0-.1-.1-.3-.1-.4 0-.1 0-.3-.1-.4-.4.4-.8.6-1.3.8s-1 .2-1.5.2c-.4 0-.8 0-1.1-.1-.3-.1-.6-.2-.9-.4-.3-.2-.5-.5-.6-.8-.1-.3-.2-.7-.2-1.1 0-.5.1-.9.2-1.2.2-.3.4-.5.6-.7.3-.2.6-.3.9-.4.3-.1.7-.2 1-.2.3-.1.7-.1 1-.1s.6-.1.9-.1c.3-.1.5-.2.6-.3.1-.1.2-.3.2-.5s0-.4-.1-.6c-.1-.1-.2-.3-.3-.3-.1-.1-.3-.1-.5-.2h-.6c-.4 0-.8.1-1.1.3-.3.2-.4.5-.4 1h-2.2zm5.2 1.7c-.1.1-.2.2-.4.2-.1 0-.3.1-.5.1s-.3.1-.5.1-.4 0-.5.1c-.2 0-.3.1-.5.1-.2.1-.3.1-.4.2l-.3.3c-.1.1-.1.3-.1.5s0 .4.1.5l.3.3c.1.1.3.1.4.2h.5c.4 0 .8-.1 1-.2.2-.1.4-.3.5-.5.1-.2.2-.4.2-.6v-1.3zM148.3 124.3v1.1c.3-.5.7-.8 1.1-1 .5-.2.9-.3 1.4-.3.6 0 1.1.1 1.5.2.4.2.7.4.9.7.2.3.4.6.5 1.1.1.4.1.9.1 1.4v5.1h-2.3V128c0-.7-.1-1.2-.3-1.5-.2-.3-.6-.5-1.1-.5-.6 0-1.1.2-1.3.5-.3.4-.4 1-.4 1.8v4.3h-2.3v-8.2h2.2zM161.4 131.5c-.3.4-.6.8-1 1-.4.2-.9.3-1.5.3s-1.2-.1-1.6-.4c-.5-.2-.9-.6-1.2-1-.3-.4-.5-.9-.7-1.4-.2-.5-.2-1.1-.2-1.7 0-.6.1-1.1.2-1.6.2-.5.4-1 .7-1.4.3-.4.7-.7 1.1-.9.5-.2 1-.4 1.6-.4.5 0 1 .1 1.4.3.4.2.8.5 1 .9v-4.1h2.3v11.4h-2.1v-1zm-.1-4.1c-.1-.3-.2-.6-.3-.8l-.6-.6c-.2-.1-.6-.2-.9-.2-.4 0-.7.1-.9.2-.3.1-.5.3-.6.6-.2.2-.3.5-.3.8-.1.3-.1.6-.1 1 0 .3 0 .6.1 1s.2.6.4.9c.2.2.4.5.6.6.2.2.5.2.9.2s.7-.1.9-.2c.2-.1.4-.3.6-.6.1-.2.3-.5.3-.9.1-.3.1-.6.1-1-.1-.3-.1-.7-.2-1zM172.1 130.6c.3.3.8.5 1.5.5.5 0 .8-.1 1.2-.3.3-.2.5-.5.6-.7h2c-.3 1-.8 1.7-1.5 2.1-.7.4-1.5.6-2.4.6-.6 0-1.2-.1-1.8-.3-.5-.2-1-.5-1.3-.9-.4-.4-.6-.8-.8-1.4-.2-.5-.3-1.1-.3-1.8 0-.6.1-1.2.3-1.7.2-.5.5-1 .9-1.4.4-.4.8-.7 1.3-.9.5-.2 1.1-.3 1.7-.3.7 0 1.3.1 1.8.4.5.3.9.6 1.3 1.1.3.5.6 1 .7 1.6.1.6.2 1.2.2 1.8h-5.9c0 .7.2 1.2.5 1.6zm2.6-4.4c-.3-.3-.7-.4-1.2-.4-.4 0-.7.1-.9.2-.2.1-.4.3-.6.5l-.3.6c-.1.2-.1.4-.1.5h3.7c-.2-.6-.3-1.1-.6-1.4zM181 124.3v1.1c.3-.5.7-.8 1.1-1 .5-.2.9-.3 1.4-.3.6 0 1.1.1 1.5.2.4.2.7.4.9.7.2.3.4.6.5 1.1.1.4.1.9.1 1.4v5.1h-2.3V128c0-.7-.1-1.2-.3-1.5-.2-.3-.6-.5-1.1-.5-.6 0-1.1.2-1.3.5-.3.4-.4 1-.4 1.8v4.3h-2.3v-8.2h2.2zM190.3 132.5l-2.8-8.2h2.4l1.7 5.6 1.7-5.6h2.2l-2.8 8.2h-2.4zM196.6 123v-1.9h2.3v1.9h-2.3zm2.3 1.3v8.2h-2.3v-8.2h2.3zM202.8 124.3v1.5c.1-.3.2-.5.4-.7l.6-.6c.2-.2.5-.3.7-.4.3-.1.5-.1.8-.1.1 0 .3 0 .5.1v2.1c-.1 0-.2 0-.4-.1h-.4c-.4 0-.8.1-1.1.2-.3.1-.5.3-.7.6-.2.2-.3.5-.4.8-.1.3-.1.7-.1 1v3.7h-2.3v-8.2h2.4zM206.6 126.6c.2-.5.5-1 .9-1.4.4-.4.8-.7 1.3-.9.5-.2 1.1-.3 1.8-.3.6 0 1.2.1 1.8.3.5.2 1 .5 1.3.9.4.4.7.8.9 1.4.2.5.3 1.1.3 1.8s-.1 1.3-.3 1.8c-.2.5-.5 1-.9 1.4-.4.4-.8.7-1.3.9-.5.2-1.1.3-1.8.3-.6 0-1.2-.1-1.8-.3-.5-.2-1-.5-1.3-.9-.4-.4-.7-.8-.9-1.4-.2-.5-.3-1.1-.3-1.8 0-.6.1-1.2.3-1.8zm2.1 2.8c.1.3.2.6.3.8l.6.6c.3.1.6.2 1 .2s.7-.1 1-.2c.3-.1.5-.3.6-.6.2-.2.3-.5.3-.8.1-.3.1-.6.1-1 0-.3 0-.7-.1-1-.1-.3-.2-.6-.3-.8l-.6-.6c-.3-.2-.6-.2-1-.2s-.7.1-1 .2c-.3.2-.5.4-.6.6-.2.2-.3.5-.3.8-.1.3-.1.6-.1 1s0 .7.1 1zM218.5 124.3v1.1c.3-.5.7-.8 1.1-1 .5-.2.9-.3 1.4-.3.6 0 1.1.1 1.5.2.4.2.7.4.9.7.2.3.4.6.5 1.1.1.4.1.9.1 1.4v5.1h-2.3V128c0-.7-.1-1.2-.3-1.5-.2-.3-.6-.5-1.1-.5-.6 0-1.1.2-1.3.5-.3.4-.4 1-.4 1.8v4.3h-2.3v-8.2h2.2zM228 124.3v1.1c.3-.4.7-.8 1.1-1 .4-.2.9-.4 1.4-.4.5 0 1 .1 1.4.3.4.2.8.6 1 1.1.2-.4.6-.7 1-1 .4-.3.9-.4 1.5-.4.4 0 .8.1 1.2.2.4.1.7.3 1 .5.3.2.5.5.6.9.1.4.2.8.2 1.4v5.5h-2.3V127c0-.2-.1-.5-.2-.6-.1-.2-.2-.3-.4-.4-.2-.1-.4-.2-.8-.2-.3 0-.6.1-.8.2-.2.1-.4.3-.5.5-.1.2-.2.4-.2.7 0 .2-.1.5-.1.8v4.6H231v-5.3c0-.2-.1-.5-.1-.7-.1-.2-.2-.4-.4-.5-.2-.1-.5-.2-.8-.2-.1 0-.2 0-.4.1-.2 0-.3.1-.5.3-.2.1-.3.3-.4.6-.1.2-.2.6-.2 1v4.8h-2.3v-8.2h2.1zM242.6 130.6c.3.3.8.5 1.5.5.5 0 .8-.1 1.2-.3.3-.2.5-.5.6-.7h2c-.3 1-.8 1.7-1.5 2.1-.7.4-1.5.6-2.4.6-.6 0-1.2-.1-1.8-.3-.5-.2-1-.5-1.3-.9-.4-.4-.6-.8-.8-1.4-.2-.5-.3-1.1-.3-1.8 0-.6.1-1.2.3-1.7.2-.5.5-1 .9-1.4.4-.4.8-.7 1.3-.9.5-.2 1.1-.3 1.7-.3.7 0 1.3.1 1.8.4.5.3.9.6 1.3 1.1.3.5.6 1 .7 1.6.1.6.2 1.2.2 1.8h-5.9c0 .7.2 1.2.5 1.6zm2.6-4.4c-.3-.3-.7-.4-1.2-.4-.4 0-.7.1-.9.2-.2.1-.4.3-.6.5l-.3.6c-.1.2-.1.4-.1.5h3.7c-.2-.6-.4-1.1-.6-1.4zM251.5 124.3v1.1c.3-.5.7-.8 1.1-1 .5-.2.9-.3 1.4-.3.6 0 1.1.1 1.5.2.4.2.7.4.9.7.2.3.4.6.5 1.1.1.4.1.9.1 1.4v5.1h-2.3V128c0-.7-.1-1.2-.3-1.5-.2-.3-.6-.5-1.1-.5-.6 0-1.1.2-1.3.5-.3.4-.4 1-.4 1.8v4.3h-2.3v-8.2h2.2zM263.3 124.3v1.5h-1.7v4.1c0 .4.1.6.2.8.1.1.4.2.8.2h.7v1.8c-.2 0-.4.1-.6.1h-.7c-.4 0-.7 0-1-.1-.3 0-.6-.1-.8-.3-.2-.1-.4-.3-.6-.6-.1-.3-.2-.6-.2-1v-4.9H258v-1.5h1.4v-2.5h2.3v2.5h1.6zM264.3 126.8c0-.5.2-1 .4-1.3.2-.4.5-.6.9-.8.4-.2.8-.4 1.2-.5.5-.1.9-.1 1.4-.1.4 0 .8 0 1.3.1l1.2.3c.4.2.6.4.9.7.2.3.3.7.3 1.2v4.3c0 .4 0 .7.1 1.1 0 .3.1.6.2.8h-2.3c0-.1-.1-.3-.1-.4 0-.1 0-.3-.1-.4-.4.4-.8.6-1.3.8-.5.1-1 .2-1.5.2-.4 0-.8 0-1.1-.1-.3-.1-.6-.2-.9-.4-.3-.2-.5-.5-.6-.8-.1-.3-.2-.7-.2-1.1 0-.5.1-.9.2-1.2.2-.3.4-.5.6-.7.3-.2.6-.3.9-.4.3-.1.7-.2 1-.2.3-.1.7-.1 1-.1s.6-.1.9-.1c.3-.1.5-.2.6-.3.1-.1.2-.3.2-.5s0-.4-.1-.6c-.1-.1-.2-.3-.3-.3-.1-.1-.3-.1-.5-.2h-.6c-.4 0-.8.1-1.1.3-.3.2-.4.5-.4 1h-2.2zm5.2 1.7c-.1.1-.2.2-.4.2-.1 0-.3.1-.5.1s-.3.1-.5.1-.4 0-.5.1c-.2 0-.3.1-.5.1-.2.1-.3.1-.4.2l-.3.3c-.1.1-.1.3-.1.5s0 .4.1.5l.3.3c.1.1.3.1.4.2h.5c.4 0 .8-.1 1-.2.2-.1.4-.3.5-.5.1-.2.2-.4.2-.6v-1.3zM275.8 121.2v11.4h-2.3v-11.4h2.3zM282.1 123v-1.9h2.3v1.9h-2.3zm2.3 1.3v8.2h-2.3v-8.2h2.3zM288.4 124.3v1.1c.3-.4.7-.8 1.1-1 .4-.2.9-.4 1.4-.4.5 0 1 .1 1.4.3.4.2.8.6 1 1.1.2-.4.6-.7 1-1 .4-.3.9-.4 1.5-.4.4 0 .8.1 1.2.2.4.1.7.3 1 .5.3.2.5.5.6.9.1.4.2.8.2 1.4v5.5h-2.3V127c0-.2-.1-.5-.2-.6-.1-.2-.2-.3-.4-.4-.2-.1-.4-.2-.8-.2-.3 0-.6.1-.8.2-.2.1-.4.3-.5.5-.1.2-.2.4-.2.7 0 .2-.1.5-.1.8v4.6h-2.3v-5.3c0-.2-.1-.5-.1-.7-.1-.2-.2-.4-.4-.5-.2-.1-.5-.2-.8-.2-.1 0-.2 0-.4.1-.2 0-.3.1-.5.3-.2.1-.3.3-.4.6-.1.2-.2.6-.2 1v4.8h-2.3v-8.2h2.3zM302.7 124.3v1.1c.3-.4.6-.8 1.1-1 .4-.2.9-.3 1.4-.3.6 0 1.2.1 1.7.4.5.2.9.6 1.2 1 .3.4.5.9.7 1.4.1.5.2 1.1.2 1.7 0 .6-.1 1.1-.2 1.6s-.4 1-.7 1.4c-.3.4-.7.7-1.1.9-.5.2-1 .4-1.6.4-.5 0-1-.1-1.4-.3-.4-.2-.8-.5-1.1-.9v3.9h-2.3v-11.1h2.1zm3 6.5c.2-.1.5-.3.6-.6.2-.2.3-.5.3-.8.1-.3.1-.6.1-1 0-.3 0-.7-.1-1l-.3-.9c-.2-.2-.4-.5-.6-.6-.2-.2-.6-.2-.9-.2-.4 0-.7.1-.9.2-.2.2-.5.4-.6.6-.2.2-.3.5-.3.8-.1.3-.1.6-.1 1 0 .3 0 .7.1 1 .1.3.2.6.3.8l.6.6c.3.1.6.2.9.2.3.2.6.1.9-.1zM310.2 126.8c0-.5.2-1 .4-1.3.2-.4.5-.6.9-.8.4-.2.8-.4 1.2-.5.5-.1.9-.1 1.4-.1.4 0 .8 0 1.3.1l1.2.3c.4.2.6.4.9.7.2.3.3.7.3 1.2v4.3c0 .4 0 .7.1 1.1 0 .3.1.6.2.8h-2.3c0-.1-.1-.3-.1-.4 0-.1 0-.3-.1-.4-.4.4-.8.6-1.3.8-.5.1-1 .2-1.5.2-.4 0-.8 0-1.1-.1-.3-.1-.6-.2-.9-.4-.3-.2-.5-.5-.6-.8-.1-.3-.2-.7-.2-1.1 0-.5.1-.9.2-1.2.2-.3.4-.5.6-.7.3-.2.6-.3.9-.4.3-.1.7-.2 1-.2.3-.1.7-.1 1-.1s.6-.1.9-.1c.3-.1.5-.2.6-.3.1-.1.2-.3.2-.5s0-.4-.1-.6c-.1-.1-.2-.3-.3-.3-.1-.1-.3-.1-.5-.2h-.6c-.4 0-.8.1-1.1.3-.3.2-.4.5-.4 1h-2.2zm5.3 1.7c-.1.1-.2.2-.4.2-.1 0-.3.1-.5.1s-.3.1-.5.1-.4 0-.5.1c-.2 0-.3.1-.5.1-.2.1-.3.1-.4.2l-.3.3c-.1.1-.1.3-.1.5s0 .4.1.5l.3.3c.1.1.3.1.4.2h.5c.4 0 .8-.1 1-.2.2-.1.4-.3.5-.5.1-.2.2-.4.2-.6v-1.3zM323.4 125.8c-.4 0-.7.1-.9.2l-.6.6c-.2.3-.3.5-.3.9-.1.3-.1.6-.1.9 0 .3 0 .6.1.9.1.3.2.6.3.8.1.2.3.5.6.6.2.2.5.2.9.2.5 0 1-.2 1.2-.5s.5-.7.5-1.2h2.2c-.1 1.1-.6 1.9-1.3 2.5-.7.6-1.6.9-2.7.9-.6 0-1.2-.1-1.7-.3-.5-.2-1-.5-1.3-.9-.4-.4-.6-.8-.8-1.3-.2-.5-.3-1.1-.3-1.7 0-.6.1-1.2.3-1.8.2-.5.5-1 .8-1.4.4-.4.8-.7 1.3-.9s1.1-.3 1.8-.3c.5 0 1 .1 1.4.2.5.1.9.3 1.2.6.4.3.6.6.9 1 .2.4.4.8.4 1.4h-2.2c-.2-.9-.7-1.4-1.7-1.4zM333.1 124.3v1.5h-1.7v4.1c0 .4.1.6.2.8.1.1.4.2.8.2h.7v1.8c-.2 0-.4.1-.6.1h-.7c-.4 0-.7 0-1-.1-.3 0-.6-.1-.8-.3-.2-.1-.4-.3-.6-.6-.1-.3-.2-.6-.2-1v-4.9h-1.4v-1.5h1.4v-2.5h2.3v2.5h1.6z"/><path class="st0" d="M136.3 81.4v-2.1h9.3v2.1h-3.4v9.3h-2.5v-9.3h-3.4zM149 79.3v4.3c.3-.5.7-.8 1.1-1 .4-.2.9-.3 1.3-.3.6 0 1.1.1 1.5.2.4.2.7.4.9.7.2.3.4.6.5 1.1.1.4.1.9.1 1.4v5.1h-2.3V86c0-.7-.1-1.2-.3-1.5-.2-.3-.6-.5-1.1-.5-.6 0-1.1.2-1.3.5-.3.4-.4 1-.4 1.8v4.3h-2.3V79.3h2.3zM156.2 81.1v-1.9h2.3v1.9h-2.3zm2.3 1.3v8.2h-2.3v-8.2h2.3zM162.2 88.6c.1.2.2.3.4.4.2.1.3.2.5.2.2.1.4.1.6.1.2 0 .3 0 .5-.1s.3-.1.5-.2.3-.2.4-.3c.1-.1.1-.3.1-.5 0-.3-.2-.6-.7-.8-.5-.2-1.1-.3-1.9-.5-.3-.1-.7-.2-1-.3-.3-.1-.6-.2-.8-.4l-.6-.6c-.1-.2-.2-.6-.2-.9 0-.5.1-1 .3-1.3.2-.3.5-.6.8-.8.3-.2.7-.3 1.1-.4.4-.1.9-.1 1.3-.1s.9 0 1.3.1.8.2 1.1.4c.3.2.6.5.8.8.2.3.3.8.4 1.3H165c0-.4-.2-.7-.5-.9-.3-.2-.6-.2-1.1-.2h-.4c-.1 0-.3.1-.4.1-.1.1-.2.1-.3.2-.1.1-.1.2-.1.4s.1.4.2.5c.1.1.3.2.6.3.2.1.5.2.8.2.3.1.6.1.9.2.3.1.7.2 1 .3.3.1.6.2.8.4.2.2.4.4.6.7s.2.6.2 1c0 .5-.1 1-.3 1.4-.2.4-.5.7-.9.9-.4.2-.8.4-1.2.5-.5.1-.9.1-1.4.1-.5 0-.9 0-1.4-.1-.5-.1-.9-.3-1.2-.5-.4-.2-.6-.5-.9-.9-.2-.4-.4-.8-.4-1.4h2.1c.3.3.4.5.5.7zM177.2 83.9c-.4 0-.7.1-.9.2l-.6.6c-.2.3-.3.5-.3.9-.1.3-.1.6-.1.9 0 .3 0 .6.1.9.1.3.2.6.3.8.1.2.3.5.6.6.2.2.5.2.9.2.5 0 1-.2 1.2-.5s.5-.7.5-1.2h2.2c-.1 1.1-.6 1.9-1.3 2.5-.7.6-1.6.9-2.7.9-.6 0-1.2-.1-1.7-.3-.5-.2-1-.5-1.3-.9-.4-.4-.6-.8-.8-1.3-.2-.5-.3-1.1-.3-1.7 0-.6.1-1.2.3-1.8.2-.5.5-1 .8-1.4.4-.4.8-.7 1.3-.9.5-.2 1.1-.3 1.8-.3.5 0 1 .1 1.4.2.5.1.9.3 1.2.6.4.3.6.6.9 1 .2.4.4.8.4 1.4h-2.2c-.2-.9-.8-1.4-1.7-1.4zM182.4 84.7c.2-.5.5-1 .9-1.4.4-.4.8-.7 1.3-.9.5-.2 1.1-.3 1.8-.3.6 0 1.2.1 1.8.3.5.2 1 .5 1.3.9.4.4.7.8.9 1.4.2.5.3 1.1.3 1.8s-.1 1.3-.3 1.8c-.2.5-.5 1-.9 1.4-.4.4-.8.7-1.3.9-.5.2-1.1.3-1.8.3-.6 0-1.2-.1-1.8-.3-.5-.2-1-.5-1.3-.9-.4-.4-.7-.8-.9-1.4-.2-.5-.3-1.1-.3-1.8 0-.6.1-1.2.3-1.8zm2.1 2.8c.1.3.2.6.3.8l.6.6c.3.1.6.2 1 .2s.7-.1 1-.2c.3-.1.5-.3.6-.6.2-.2.3-.5.3-.8.1-.3.1-.6.1-1 0-.3 0-.7-.1-1-.1-.3-.2-.6-.3-.8l-.6-.6c-.3-.2-.6-.2-1-.2s-.7.1-1 .2c-.3.2-.5.4-.6.6-.2.2-.3.5-.3.8-.1.3-.1.6-.1 1s0 .7.1 1zM194.3 82.4v1.1c.3-.4.7-.8 1.1-1 .4-.2.9-.4 1.4-.4.5 0 1 .1 1.4.3s.8.6 1 1.1c.2-.4.6-.7 1-1 .4-.3.9-.4 1.5-.4.4 0 .8.1 1.2.2.4.1.7.3 1 .5.3.2.5.5.6.9.1.4.2.8.2 1.4v5.5h-2.3V85.2c0-.2-.1-.5-.2-.6-.1-.2-.2-.3-.4-.4-.2-.1-.4-.2-.8-.2-.3 0-.6.1-.8.2-.2.1-.4.3-.5.5-.1.2-.2.4-.2.7 0 .2-.1.5-.1.8v4.6h-2.3v-5.5c0-.2-.1-.5-.1-.7-.1-.2-.2-.4-.4-.5-.2-.1-.5-.2-.8-.2-.1 0-.2 0-.4.1-.2 0-.3.1-.5.3-.2.1-.3.3-.4.6-.1.2-.2.6-.2 1v4.8H192v-8.2h2.3zM208.7 82.4v1.1c.3-.4.6-.8 1.1-1 .4-.2.9-.3 1.4-.3.6 0 1.2.1 1.7.4.5.2.9.6 1.2 1 .3.4.5.9.7 1.4.1.5.2 1.1.2 1.7 0 .6-.1 1.1-.2 1.6s-.4 1-.7 1.4c-.3.4-.7.7-1.1.9-.5.2-1 .4-1.6.4-.5 0-1-.1-1.4-.3-.4-.2-.8-.5-1.1-.9v3.9h-2.3V82.4h2.1zm2.9 6.5c.2-.1.5-.3.6-.6.2-.2.3-.5.3-.8.1-.3.1-.6.1-1 0-.3 0-.7-.1-1l-.3-.9c-.2-.2-.4-.5-.6-.6-.2-.2-.6-.2-.9-.2-.4 0-.7.1-.9.2-.2.2-.5.4-.6.6-.2.2-.3.5-.3.8-.1.3-.1.6-.1 1 0 .3 0 .7.1 1s.2.6.3.8l.6.6c.3.1.6.2.9.2.4.2.7.1.9-.1zM216.2 84.9c0-.5.2-1 .4-1.3.2-.4.5-.6.9-.8.4-.2.8-.4 1.2-.5.5-.1.9-.1 1.4-.1.4 0 .8 0 1.3.1l1.2.3c.4.2.6.4.9.7.2.3.3.7.3 1.2v4.3c0 .4 0 .7.1 1.1 0 .3.1.6.2.8h-2.3c0-.1-.1-.3-.1-.4 0-.1 0-.3-.1-.4-.4.4-.8.6-1.3.8-.5.1-1 .2-1.5.2-.4 0-.8 0-1.1-.1-.3-.1-.6-.2-.9-.4-.3-.2-.5-.5-.6-.8-.1-.3-.2-.7-.2-1.1 0-.5.1-.9.2-1.2.2-.3.4-.5.6-.7.3-.2.6-.3.9-.4.3-.1.7-.2 1-.2.3-.1.7-.1 1-.1.3 0 .6-.1.9-.1.3-.1.5-.2.6-.3.1-.1.2-.3.2-.5s0-.4-.1-.6c-.1-.1-.2-.3-.3-.3-.1-.1-.3-.1-.5-.2h-.6c-.4 0-.8.1-1.1.3-.3.2-.4.5-.4 1h-2.2zm5.2 1.7c-.1.1-.2.2-.4.2-.1 0-.3.1-.5.1s-.3.1-.5.1-.4 0-.5.1c-.2 0-.3.1-.5.1-.2.1-.3.1-.4.2l-.3.3c-.1.1-.1.3-.1.5s0 .4.1.5l.3.3c.1.1.3.1.4.2h.5c.4 0 .8-.1 1-.2.2-.1.4-.3.5-.5.1-.2.2-.4.2-.6v-1.3zM227.6 82.4v1.1c.3-.5.7-.8 1.1-1 .5-.2.9-.3 1.4-.3.6 0 1.1.1 1.5.2.4.2.7.4.9.7.2.3.4.6.5 1.1.1.4.1.9.1 1.4v5.1h-2.3V86c0-.7-.1-1.2-.3-1.5-.2-.3-.6-.5-1.1-.5-.6 0-1.1.2-1.3.5-.3.4-.4 1-.4 1.8v4.3h-2.3v-8.2h2.2zM237.9 93.1c-.4.3-1 .4-1.8.4h-.7c-.2 0-.5 0-.7-.1v-1.9c.2 0 .4 0 .7.1h.7c.3 0 .5-.1.7-.4.1-.2.2-.4.2-.7 0-.2 0-.4-.1-.5l-2.9-7.7h2.4l1.9 5.6 1.8-5.6h2.3l-3.4 9.3c-.3.7-.7 1.2-1.1 1.5zM249.7 82.4v1.1c.3-.4.7-.8 1.1-1 .4-.2.9-.4 1.4-.4.5 0 1 .1 1.4.3.4.2.8.6 1 1.1.2-.4.6-.7 1-1 .4-.3.9-.4 1.5-.4.4 0 .8.1 1.2.2.4.1.7.3 1 .5.3.2.5.5.6.9.1.4.2.8.2 1.4v5.5h-2.3V85.2c0-.2-.1-.5-.2-.6-.1-.2-.2-.3-.4-.4-.2-.1-.4-.2-.8-.2-.3 0-.6.1-.8.2-.2.1-.4.3-.5.5-.1.2-.2.4-.2.7 0 .2-.1.5-.1.8v4.6h-2.3v-5.5c0-.2-.1-.5-.1-.7s-.2-.4-.4-.5c-.2-.1-.5-.2-.8-.2-.1 0-.2 0-.4.1-.2 0-.3.1-.5.3-.2.1-.3.3-.4.6-.1.2-.2.6-.2 1v4.8h-2.3v-8.2h2.3zM264.4 88.7c.3.3.8.5 1.5.5.5 0 .8-.1 1.2-.3.3-.2.5-.5.6-.7h2c-.3 1-.8 1.7-1.5 2.1-.7.4-1.5.6-2.4.6-.6 0-1.2-.1-1.8-.3-.5-.2-1-.5-1.3-.9-.4-.4-.6-.8-.8-1.4-.2-.5-.3-1.1-.3-1.8 0-.6.1-1.2.3-1.7.2-.5.5-1 .9-1.4.4-.4.8-.7 1.3-.9.5-.2 1.1-.3 1.7-.3.7 0 1.3.1 1.8.4.5.3.9.6 1.3 1.1.3.5.6 1 .7 1.6.1.6.2 1.2.2 1.8h-5.9c0 .7.1 1.2.5 1.6zm2.5-4.4c-.3-.3-.7-.4-1.2-.4-.4 0-.7.1-.9.2-.2.1-.4.3-.6.5l-.3.6c-.1.2-.1.4-.1.5h3.7c-.1-.6-.3-1.1-.6-1.4zM273.5 88.7c.3.3.8.5 1.5.5.5 0 .8-.1 1.2-.3.3-.2.5-.5.6-.7h2c-.3 1-.8 1.7-1.5 2.1-.7.4-1.5.6-2.4.6-.6 0-1.2-.1-1.8-.3s-1-.5-1.3-.9c-.4-.4-.6-.8-.8-1.4-.2-.5-.3-1.1-.3-1.8 0-.6.1-1.2.3-1.7.2-.5.5-1 .9-1.4.4-.4.8-.7 1.3-.9.5-.2 1.1-.3 1.7-.3.7 0 1.3.1 1.8.4.5.3.9.6 1.3 1.1.3.5.6 1 .7 1.6.1.6.2 1.2.2 1.8H273c0 .7.2 1.2.5 1.6zm2.6-4.4c-.3-.3-.7-.4-1.2-.4-.4 0-.7.1-.9.2-.2.1-.4.3-.6.5l-.3.6c-.1.2-.1.4-.1.5h3.7c-.2-.6-.3-1.1-.6-1.4zM284.8 82.4v1.5h-1.7V88c0 .4.1.6.2.8.1.1.4.2.8.2h.7v1.8c-.2 0-.4.1-.6.1h-.7c-.4 0-.7 0-1-.1-.3 0-.6-.1-.8-.3-.2-.1-.4-.3-.6-.6-.1-.3-.2-.6-.2-1V84h-1.4v-1.5h1.4V80h2.3v2.5h1.6zM287.8 88.6c.1.2.2.3.4.4.2.1.3.2.5.2.2.1.4.1.6.1.2 0 .3 0 .5-.1s.3-.1.5-.2.3-.2.4-.3c.1-.1.1-.3.1-.5 0-.3-.2-.6-.7-.8-.5-.2-1.1-.3-1.9-.5-.3-.1-.7-.2-1-.3-.3-.1-.6-.2-.8-.4l-.6-.6c-.1-.2-.2-.6-.2-.9 0-.5.1-1 .3-1.3.2-.3.5-.6.8-.8.3-.2.7-.3 1.1-.4.4-.1.9-.1 1.3-.1s.9 0 1.3.1.8.2 1.1.4c.3.2.6.5.8.8.2.3.3.8.4 1.3h-2.1c0-.4-.2-.7-.5-.9-.3-.2-.6-.2-1.1-.2h-.4c-.1 0-.3.1-.4.1-.1.1-.2.1-.3.2-.1.1-.1.2-.1.4s.1.4.2.5c.1.1.3.2.6.3.2.1.5.2.8.2.3.1.6.1.9.2.3.1.7.2 1 .3.3.1.6.2.8.4.2.2.4.4.6.7s.2.6.2 1c0 .5-.1 1-.3 1.4-.2.4-.5.7-.9.9-.4.2-.8.4-1.2.5-.5.1-.9.1-1.4.1-.5 0-.9 0-1.4-.1-.5-.1-.9-.3-1.2-.5-.4-.2-.6-.5-.9-.9-.2-.4-.4-.8-.4-1.4h2.1c.3.3.4.5.5.7zM303.3 82.4v1.5h-1.7V88c0 .4.1.6.2.8.1.1.4.2.8.2h.7v1.8c-.2 0-.4.1-.6.1h-.7c-.4 0-.7 0-1-.1-.3 0-.6-.1-.8-.3-.2-.1-.4-.3-.6-.6-.1-.3-.2-.6-.2-1V84H298v-1.5h1.4V80h2.3v2.5h1.6zM306.7 79.3v4.3c.3-.5.7-.8 1.1-1 .4-.2.9-.3 1.3-.3.6 0 1.1.1 1.5.2.4.2.7.4.9.7.2.3.4.6.5 1.1.1.4.1.9.1 1.4v5.1h-2.3V86c0-.7-.1-1.2-.3-1.5-.2-.3-.6-.5-1.1-.5-.6 0-1.1.2-1.3.5-.3.4-.4 1-.4 1.8v4.3h-2.3V79.3h2.3zM316.3 88.7c.3.3.8.5 1.5.5.5 0 .8-.1 1.2-.3.3-.2.5-.5.6-.7h2c-.3 1-.8 1.7-1.5 2.1-.7.4-1.5.6-2.4.6-.6 0-1.2-.1-1.8-.3-.5-.2-1-.5-1.3-.9-.4-.4-.6-.8-.8-1.4-.2-.5-.3-1.1-.3-1.8 0-.6.1-1.2.3-1.7.2-.5.5-1 .9-1.4.4-.4.8-.7 1.3-.9.5-.2 1.1-.3 1.7-.3.7 0 1.3.1 1.8.4.5.3.9.6 1.3 1.1.3.5.6 1 .7 1.6.1.6.2 1.2.2 1.8h-5.9c0 .7.2 1.2.5 1.6zm2.6-4.4c-.3-.3-.7-.4-1.2-.4-.4 0-.7.1-.9.2-.2.1-.4.3-.6.5l-.3.6c-.1.2-.1.4-.1.5h3.7c-.2-.6-.4-1.1-.6-1.4zM139.2 100.2v4.3c.3-.5.7-.8 1.1-1 .4-.2.9-.3 1.3-.3.6 0 1.1.1 1.5.2.4.2.7.4.9.7.2.3.4.6.5 1.1.1.4.1.9.1 1.4v5.1h-2.3v-4.6c0-.7-.1-1.2-.3-1.5-.2-.3-.6-.5-1.1-.5-.6 0-1.1.2-1.3.5-.3.4-.4 1-.4 1.8v4.3H137v-11.4h2.2zM146.5 102.1v-1.9h2.3v1.9h-2.3zm2.2 1.3v8.2h-2.3v-8.2h2.3zM158.3 112.2c-.1.4-.3.8-.6 1.2-.3.4-.7.7-1.3.9-.6.3-1.3.4-2.3.4-.4 0-.8-.1-1.2-.2-.4-.1-.8-.3-1.1-.5-.3-.2-.6-.5-.9-.8-.2-.3-.4-.7-.4-1.2h2.2c.1.4.3.7.6.9.3.2.7.2 1.1.2.6 0 1.1-.2 1.4-.6.3-.4.4-.9.4-1.4V110c-.2.4-.6.8-1 1-.5.2-.9.3-1.4.3-.6 0-1.1-.1-1.6-.3-.4-.2-.8-.5-1.1-.9-.3-.4-.5-.8-.6-1.3-.1-.5-.2-1-.2-1.6 0-.5.1-1 .2-1.5.2-.5.4-.9.7-1.3.3-.4.7-.7 1.1-.9.4-.2.9-.3 1.5-.3.5 0 1 .1 1.4.3s.8.5 1 1v-1.1h2.1v7.7c.1.3.1.7 0 1.1zm-3.1-2.7c.2-.1.4-.3.6-.5.2-.2.3-.5.4-.7.1-.3.1-.6.1-.9 0-.3 0-.7-.1-1-.1-.3-.2-.6-.3-.8-.1-.2-.3-.4-.6-.6-.2-.1-.6-.2-.9-.2-.3 0-.6.1-.8.2-.2.1-.4.3-.6.5-.2.2-.3.5-.3.7-.1.3-.1.6-.1.9 0 .3 0 .6.1.9.1.3.2.6.3.8.1.2.3.4.6.6.2.1.5.2.9.2.2 0 .5 0 .7-.1zM162.5 100.2v4.3c.3-.5.7-.8 1.1-1 .4-.2.9-.3 1.3-.3.6 0 1.1.1 1.5.2.4.2.7.4.9.7.2.3.4.6.5 1.1.1.4.1.9.1 1.4v5.1h-2.3v-4.6c0-.7-.1-1.2-.3-1.5-.2-.3-.6-.5-1.1-.5-.6 0-1.1.2-1.3.5-.3.4-.4 1-.4 1.8v4.3h-2.3v-11.4h2.3zM172.1 109.6c.3.3.8.5 1.5.5.5 0 .8-.1 1.2-.3.3-.2.5-.5.6-.7h2c-.3 1-.8 1.7-1.5 2.1-.7.4-1.5.6-2.4.6-.6 0-1.2-.1-1.8-.3-.5-.2-1-.5-1.3-.9-.4-.4-.6-.8-.8-1.4-.2-.5-.3-1.1-.3-1.8 0-.6.1-1.2.3-1.7.2-.5.5-1 .9-1.4.4-.4.8-.7 1.3-.9.5-.2 1.1-.3 1.7-.3.7 0 1.3.1 1.8.4.5.3.9.6 1.3 1.1.3.5.6 1 .7 1.6.1.6.2 1.2.2 1.8h-5.9c0 .8.2 1.3.5 1.6zm2.6-4.3c-.3-.3-.7-.4-1.2-.4-.4 0-.7.1-.9.2-.2.1-.4.3-.6.5l-.3.6c-.1.2-.1.4-.1.5h3.7c-.2-.7-.4-1.1-.6-1.4zM180.7 109.5c.1.2.2.3.4.4.2.1.3.2.5.2.2.1.4.1.6.1.2 0 .3 0 .5-.1s.3-.1.5-.2.3-.2.4-.3c.1-.1.1-.3.1-.5 0-.3-.2-.6-.7-.8-.5-.2-1.1-.3-1.9-.5-.3-.1-.7-.2-1-.3-.3-.1-.6-.2-.8-.4l-.6-.6c-.1-.2-.2-.6-.2-.9 0-.5.1-1 .3-1.3.2-.3.5-.6.8-.8.3-.2.7-.3 1.1-.4.4-.1.9-.1 1.3-.1s.9 0 1.3.1.8.2 1.1.4c.3.2.6.5.8.8.2.3.3.8.4 1.3h-2.1c0-.4-.2-.7-.5-.9-.3-.2-.6-.2-1.1-.2h-.4c-.1 0-.3.1-.4.1-.1.1-.2.1-.3.2-.1.1-.1.2-.1.4s.1.4.2.5c.1.1.3.2.6.3.2.1.5.2.8.2.3.1.6.1.9.2.3.1.7.2 1 .3.3.1.6.2.8.4.2.2.4.4.6.7s.2.6.2 1c0 .5-.1 1-.3 1.4-.2.4-.5.7-.9.9-.4.2-.8.4-1.2.5-.5.1-.9.1-1.4.1-.5 0-.9 0-1.4-.1-.5-.1-.9-.3-1.2-.5-.4-.2-.6-.5-.9-.9-.2-.4-.4-.8-.4-1.4h2.1c.4.4.4.6.5.7zM191.9 103.4v1.5h-1.7v4.1c0 .4.1.6.2.8.1.1.4.2.8.2h.7v1.8c-.2 0-.4.1-.6.1h-.7c-.4 0-.7 0-1-.1-.3 0-.6-.1-.8-.3-.2-.1-.4-.3-.6-.6-.1-.3-.2-.6-.2-1V105h-1.4v-1.5h1.4V101h2.3v2.5h1.6zM199.3 109.5c.1.2.2.3.4.4.2.1.3.2.5.2.2.1.4.1.6.1.2 0 .3 0 .5-.1.2 0 .3-.1.5-.2s.3-.2.4-.3c.1-.1.1-.3.1-.5 0-.3-.2-.6-.7-.8-.5-.2-1.1-.3-1.9-.5-.3-.1-.7-.2-1-.3-.3-.1-.6-.2-.8-.4l-.6-.6c-.1-.2-.2-.6-.2-.9 0-.5.1-1 .3-1.3.2-.3.5-.6.8-.8.3-.2.7-.3 1.1-.4.4-.1.9-.1 1.3-.1s.9 0 1.3.1.8.2 1.1.4c.3.2.6.5.8.8.2.3.3.8.4 1.3h-2.1c0-.4-.2-.7-.5-.9-.3-.2-.6-.2-1.1-.2h-.4c-.1 0-.3.1-.4.1-.1.1-.2.1-.3.2-.1.1-.1.2-.1.4s.1.4.2.5c.1.1.3.2.6.3.2.1.5.2.8.2.3.1.6.1.9.2.3.1.7.2 1 .3.3.1.6.2.8.4.2.2.4.4.6.7s.2.6.2 1c0 .5-.1 1-.3 1.4-.2.4-.5.7-.9.9-.4.2-.8.4-1.2.5-.5.1-.9.1-1.4.1-.5 0-.9 0-1.4-.1-.5-.1-.9-.3-1.2-.5-.4-.2-.6-.5-.9-.9-.2-.4-.4-.8-.4-1.4h2.1c.4.4.4.6.5.7zM210.5 103.4v1.5h-1.7v4.1c0 .4.1.6.2.8.1.1.4.2.8.2h.7v1.8c-.2 0-.4.1-.6.1h-.7c-.4 0-.7 0-1-.1-.3 0-.6-.1-.8-.3-.2-.1-.4-.3-.6-.6-.1-.3-.2-.6-.2-1V105h-1.4v-1.5h1.4V101h2.3v2.5h1.6zM211.5 105.9c0-.5.2-1 .4-1.3.2-.4.5-.6.9-.8.4-.2.8-.4 1.2-.5.5-.1.9-.1 1.4-.1.4 0 .8 0 1.3.1l1.2.3c.4.2.6.4.9.7.2.3.3.7.3 1.2v4.3c0 .4 0 .7.1 1.1 0 .3.1.6.2.8H217c0-.1-.1-.3-.1-.4 0-.1 0-.3-.1-.4-.4.4-.8.6-1.3.8-.5.1-1 .2-1.5.2-.4 0-.8 0-1.1-.1-.3-.1-.6-.2-.9-.4-.3-.2-.5-.5-.6-.8-.1-.3-.2-.7-.2-1.1 0-.5.1-.9.2-1.2.2-.3.4-.5.6-.7.3-.2.6-.3.9-.4.3-.1.7-.2 1-.2.3-.1.7-.1 1-.1.3 0 .6-.1.9-.1.3-.1.5-.2.6-.3.1-.1.2-.3.2-.5s0-.4-.1-.6c-.1-.1-.2-.3-.3-.3-.1-.1-.3-.1-.5-.2h-.6c-.4 0-.8.1-1.1.3-.3.2-.4.5-.4 1h-2.1zm5.2 1.7c-.1.1-.2.2-.4.2-.1 0-.3.1-.5.1s-.3.1-.5.1-.4 0-.5.1c-.2 0-.3.1-.5.1-.2.1-.3.1-.4.2l-.3.3c-.1.1-.1.3-.1.5s0 .4.1.5l.3.3c.1.1.3.1.4.2h.5c.4 0 .8-.1 1-.2.2-.1.4-.3.5-.5.1-.2.2-.4.2-.6v-1.3zM222.9 103.4v1.1c.3-.5.7-.8 1.1-1 .5-.2.9-.3 1.4-.3.6 0 1.1.1 1.5.2.4.2.7.4.9.7.2.3.4.6.5 1.1.1.4.1.9.1 1.4v5.1h-2.3v-4.6c0-.7-.1-1.2-.3-1.5-.2-.3-.6-.5-1.1-.5-.6 0-1.1.2-1.3.5-.3.4-.4 1-.4 1.8v4.3h-2.3v-8.2h2.2zM236 110.5c-.3.4-.6.8-1 1-.4.2-.9.3-1.5.3s-1.2-.1-1.6-.4c-.5-.2-.9-.6-1.2-1-.3-.4-.5-.9-.7-1.4-.2-.5-.2-1.1-.2-1.7 0-.6.1-1.1.2-1.6.2-.5.4-1 .7-1.4.3-.4.7-.7 1.1-.9.5-.2 1-.4 1.6-.4.5 0 1 .1 1.4.3.4.2.8.5 1 .9v-4.1h2.3v11.4H236v-1zm-.1-4c-.1-.3-.2-.6-.3-.8l-.6-.6c-.2-.1-.6-.2-.9-.2-.4 0-.7.1-.9.2-.3.1-.5.3-.6.6-.2.2-.3.5-.3.8-.1.3-.1.6-.1 1 0 .3 0 .6.1 1s.2.6.4.9c.2.2.4.5.6.6.2.2.5.2.9.2s.7-.1.9-.2c.2-.1.4-.3.6-.6.1-.2.3-.5.3-.9.1-.3.1-.6.1-1-.1-.4-.1-.7-.2-1zM239.8 105.9c0-.5.2-1 .4-1.3.2-.4.5-.6.9-.8.4-.2.8-.4 1.2-.5.5-.1.9-.1 1.4-.1.4 0 .8 0 1.3.1l1.2.3c.4.2.6.4.9.7.2.3.3.7.3 1.2v4.3c0 .4 0 .7.1 1.1 0 .3.1.6.2.8h-2.3c0-.1-.1-.3-.1-.4 0-.1 0-.3-.1-.4-.4.4-.8.6-1.3.8-.5.1-1 .2-1.5.2-.4 0-.8 0-1.1-.1-.3-.1-.6-.2-.9-.4-.3-.2-.5-.5-.6-.8-.1-.3-.2-.7-.2-1.1 0-.5.1-.9.2-1.2.2-.3.4-.5.6-.7.3-.2.6-.3.9-.4.3-.1.7-.2 1-.2.3-.1.7-.1 1-.1.3 0 .6-.1.9-.1.3-.1.5-.2.6-.3.1-.1.2-.3.2-.5s0-.4-.1-.6c-.1-.1-.2-.3-.3-.3-.1-.1-.3-.1-.5-.2h-.6c-.4 0-.8.1-1.1.3-.3.2-.4.5-.4 1h-2.2zm5.2 1.7c-.1.1-.2.2-.4.2-.1 0-.3.1-.5.1s-.3.1-.5.1-.4 0-.5.1c-.2 0-.3.1-.5.1-.2.1-.3.1-.4.2l-.3.3c-.1.1-.1.3-.1.5s0 .4.1.5l.3.3c.1.1.3.1.4.2h.5c.4 0 .8-.1 1-.2.2-.1.4-.3.5-.5.1-.2.2-.4.2-.6v-1.3zM251.2 103.4v1.5c.1-.3.2-.5.4-.7l.6-.6c.2-.2.5-.3.7-.4.3-.1.5-.1.8-.1.1 0 .3 0 .5.1v2.1c-.1 0-.2 0-.4-.1h-.4c-.4 0-.8.1-1.1.2-.3.1-.5.3-.7.6-.2.2-.3.5-.4.8-.1.3-.1.7-.1 1v3.7H249v-8.2h2.2zM260.8 110.5c-.3.4-.6.8-1 1-.4.2-.9.3-1.5.3s-1.2-.1-1.6-.4c-.5-.2-.9-.6-1.2-1s-.5-.9-.7-1.4c-.2-.5-.2-1.1-.2-1.7 0-.6.1-1.1.2-1.6.2-.5.4-1 .7-1.4.3-.4.7-.7 1.1-.9.5-.2 1-.4 1.6-.4.5 0 1 .1 1.4.3s.8.5 1 .9v-4.1h2.3v11.4h-2.1v-1zm-.1-4c-.1-.3-.2-.6-.3-.8l-.6-.6c-.2-.2-.6-.2-.9-.2-.4 0-.7.1-.9.2-.3.1-.5.3-.6.6-.2.2-.3.5-.3.8-.1.3-.1.6-.1 1 0 .3 0 .6.1 1s.2.6.4.9c.2.2.4.5.6.6.2.2.5.2.9.2s.7-.1.9-.2c.2-.1.4-.3.6-.6.1-.2.3-.5.3-.9.1-.3.1-.6.1-1-.1-.4-.1-.7-.2-1zM266.6 109.5c.1.2.2.3.4.4.2.1.3.2.5.2.2.1.4.1.6.1.2 0 .3 0 .5-.1s.3-.1.5-.2.3-.2.4-.3c.1-.1.1-.3.1-.5 0-.3-.2-.6-.7-.8-.5-.2-1.1-.3-1.9-.5-.3-.1-.7-.2-1-.3-.3-.1-.6-.2-.8-.4l-.6-.6c-.1-.2-.2-.6-.2-.9 0-.5.1-1 .3-1.3.2-.3.5-.6.8-.8.3-.2.7-.3 1.1-.4.4-.1.9-.1 1.3-.1s.9 0 1.3.1.8.2 1.1.4c.3.2.6.5.8.8.2.3.3.8.4 1.3h-2.1c0-.4-.2-.7-.5-.9-.3-.2-.6-.2-1.1-.2h-.4c-.1 0-.3.1-.4.1-.1.1-.2.1-.3.2-.1.1-.1.2-.1.4s.1.4.2.5c.1.1.3.2.6.3.2.1.5.2.8.2.3.1.6.1.9.2.3.1.7.2 1 .3.3.1.6.2.8.4.2.2.4.4.6.7s.2.6.2 1c0 .5-.1 1-.3 1.4-.2.4-.5.7-.9.9-.4.2-.8.4-1.2.5-.5.1-.9.1-1.4.1-.5 0-.9 0-1.4-.1-.5-.1-.9-.3-1.2-.5-.4-.2-.6-.5-.9-.9-.2-.4-.4-.8-.4-1.4h2.1c.3.4.4.6.5.7zM277.7 105.7c.2-.5.5-1 .9-1.4.4-.4.8-.7 1.3-.9.5-.2 1.1-.3 1.8-.3.6 0 1.2.1 1.8.3.5.2 1 .5 1.3.9.4.4.7.8.9 1.4.2.5.3 1.1.3 1.8s-.1 1.3-.3 1.8c-.2.5-.5 1-.9 1.4-.4.4-.8.7-1.3.9-.5.2-1.1.3-1.8.3-.6 0-1.2-.1-1.8-.3-.5-.2-1-.5-1.3-.9-.4-.4-.7-.8-.9-1.4-.2-.5-.3-1.1-.3-1.8s.1-1.3.3-1.8zm2.1 2.7c.1.3.2.6.3.8l.6.6c.3.1.6.2 1 .2s.7-.1 1-.2c.3-.1.5-.3.6-.6.2-.2.3-.5.3-.8.1-.3.1-.6.1-1 0-.3 0-.7-.1-1-.1-.3-.2-.6-.3-.8l-.6-.6c-.3-.2-.6-.2-1-.2s-.7.1-1 .2c-.3.2-.5.4-.6.6-.2.2-.3.5-.3.8-.1.3-.1.6-.1 1s0 .7.1 1zM286.5 104.9v-1.5h1.4v-.6c0-.7.2-1.3.7-1.8.5-.5 1.1-.7 2.1-.7h1.2v1.7h-.8c-.3 0-.5.1-.7.2-.1.1-.2.4-.2.7v.5h1.6v1.5h-1.6v6.7h-2.3v-6.7h-1.4zM299 109.5c.1.2.2.3.4.4.2.1.3.2.5.2.2.1.4.1.6.1.2 0 .3 0 .5-.1s.3-.1.5-.2.3-.2.4-.3c.1-.1.1-.3.1-.5 0-.3-.2-.6-.7-.8-.5-.2-1.1-.3-1.9-.5-.3-.1-.7-.2-1-.3-.3-.1-.6-.2-.8-.4l-.6-.6c-.1-.2-.2-.6-.2-.9 0-.5.1-1 .3-1.3.2-.3.5-.6.8-.8.3-.2.7-.3 1.1-.4.4-.1.9-.1 1.3-.1s.9 0 1.3.1.8.2 1.1.4c.3.2.6.5.8.8.2.3.3.8.4 1.3H302c0-.4-.2-.7-.5-.9-.3-.2-.6-.2-1.1-.2h-.4c-.1 0-.3.1-.4.1-.1.1-.2.1-.3.2-.1.1-.1.2-.1.4s.1.4.2.5c.1.1.3.2.6.3.2.1.5.2.8.2.3.1.6.1.9.2.3.1.7.2 1 .3.3.1.6.2.8.4.2.2.4.4.6.7s.2.6.2 1c0 .5-.1 1-.3 1.4-.2.4-.5.7-.9.9-.4.2-.8.4-1.2.5-.5.1-.9.1-1.4.1-.5 0-.9 0-1.4-.1-.5-.1-.9-.3-1.2-.5-.4-.2-.6-.5-.9-.9-.2-.4-.4-.8-.4-1.4h2.1c.2.4.2.6.3.7zM305.7 105.7c.2-.5.5-1 .9-1.4.4-.4.8-.7 1.3-.9s1.1-.3 1.8-.3c.6 0 1.2.1 1.8.3.5.2 1 .5 1.3.9.4.4.7.8.9 1.4.2.5.3 1.1.3 1.8s-.1 1.3-.3 1.8c-.2.5-.5 1-.9 1.4-.4.4-.8.7-1.3.9-.5.2-1.1.3-1.8.3-.6 0-1.2-.1-1.8-.3-.5-.2-1-.5-1.3-.9-.4-.4-.7-.8-.9-1.4-.2-.5-.3-1.1-.3-1.8s.1-1.3.3-1.8zm2.1 2.7c.1.3.2.6.3.8l.6.6c.3.1.6.2 1 .2s.7-.1 1-.2c.3-.1.5-.3.6-.6.2-.2.3-.5.3-.8.1-.3.1-.6.1-1 0-.3 0-.7-.1-1-.1-.3-.2-.6-.3-.8l-.6-.6c-.3-.2-.6-.2-1-.2s-.7.1-1 .2c-.3.2-.5.4-.6.6-.2.2-.3.5-.3.8-.1.3-.1.6-.1 1s0 .7.1 1zM319.3 104.8c-.4 0-.7.1-.9.2l-.6.6c-.2.3-.3.5-.3.9-.1.3-.1.6-.1.9 0 .3 0 .6.1.9.1.3.2.6.3.8.1.2.3.5.6.6.2.2.5.2.9.2.5 0 1-.2 1.2-.5.3-.3.5-.7.5-1.2h2.2c-.1 1.1-.6 1.9-1.3 2.5-.7.6-1.6.9-2.7.9-.6 0-1.2-.1-1.7-.3-.5-.2-1-.5-1.3-.9-.4-.4-.6-.8-.8-1.3-.2-.5-.3-1.1-.3-1.7 0-.6.1-1.2.3-1.8.2-.5.5-1 .8-1.4.4-.4.8-.7 1.3-.9.5-.2 1.1-.3 1.8-.3.5 0 1 .1 1.4.2.5.1.9.3 1.2.6.4.3.6.6.9 1 .2.4.4.8.4 1.4H321c-.2-.9-.7-1.4-1.7-1.4zM324.6 102.1v-1.9h2.3v1.9h-2.3zm2.3 1.3v8.2h-2.3v-8.2h2.3zM328.5 105.9c0-.5.2-1 .4-1.3.2-.4.5-.6.9-.8.4-.2.8-.4 1.2-.5.5-.1.9-.1 1.4-.1.4 0 .8 0 1.3.1l1.2.3c.4.2.6.4.9.7.2.3.3.7.3 1.2v4.3c0 .4 0 .7.1 1.1 0 .3.1.6.2.8H334c0-.1-.1-.3-.1-.4 0-.1 0-.3-.1-.4-.4.4-.8.6-1.3.8-.5.1-1 .2-1.5.2-.4 0-.8 0-1.1-.1-.3-.1-.6-.2-.9-.4-.3-.2-.5-.5-.6-.8-.1-.3-.2-.7-.2-1.1 0-.5.1-.9.2-1.2.2-.3.4-.5.6-.7.3-.2.6-.3.9-.4.3-.1.7-.2 1-.2.3-.1.7-.1 1-.1.3 0 .6-.1.9-.1.3-.1.5-.2.6-.3.1-.1.2-.3.2-.5s0-.4-.1-.6c-.1-.1-.2-.3-.3-.3-.1-.1-.3-.1-.5-.2h-.6c-.4 0-.8.1-1.1.3-.3.2-.4.5-.4 1h-2.1zm5.3 1.7c-.1.1-.2.2-.4.2-.1 0-.3.1-.5.1s-.3.1-.5.1-.4 0-.5.1c-.2 0-.3.1-.5.1-.2.1-.3.1-.4.2l-.3.3c-.1.1-.1.3-.1.5s0 .4.1.5l.3.3c.1.1.3.1.4.2h.5c.4 0 .8-.1 1-.2.2-.1.4-.3.5-.5.1-.2.2-.4.2-.6v-1.3zM340.1 100.2v11.4h-2.3v-11.4h2.3zM136.9 126.8c0-.5.2-1 .4-1.3.2-.4.5-.6.9-.8.4-.2.8-.4 1.2-.5.5-.1.9-.1 1.4-.1.4 0 .8 0 1.3.1l1.2.3c.4.2.6.4.9.7.2.3.3.7.3 1.2v4.3c0 .4 0 .7.1 1.1 0 .3.1.6.2.8h-2.3c0-.1-.1-.3-.1-.4 0-.1 0-.3-.1-.4-.4.4-.8.6-1.3.8s-1 .2-1.5.2c-.4 0-.8 0-1.1-.1-.3-.1-.6-.2-.9-.4-.3-.2-.5-.5-.6-.8-.1-.3-.2-.7-.2-1.1 0-.5.1-.9.2-1.2.2-.3.4-.5.6-.7.3-.2.6-.3.9-.4.3-.1.7-.2 1-.2.3-.1.7-.1 1-.1s.6-.1.9-.1c.3-.1.5-.2.6-.3.1-.1.2-.3.2-.5s0-.4-.1-.6c-.1-.1-.2-.3-.3-.3-.1-.1-.3-.1-.5-.2h-.6c-.4 0-.8.1-1.1.3-.3.2-.4.5-.4 1h-2.2zm5.2 1.7c-.1.1-.2.2-.4.2-.1 0-.3.1-.5.1s-.3.1-.5.1-.4 0-.5.1c-.2 0-.3.1-.5.1-.2.1-.3.1-.4.2l-.3.3c-.1.1-.1.3-.1.5s0 .4.1.5l.3.3c.1.1.3.1.4.2h.5c.4 0 .8-.1 1-.2.2-.1.4-.3.5-.5.1-.2.2-.4.2-.6v-1.3zM148.3 124.3v1.1c.3-.5.7-.8 1.1-1 .5-.2.9-.3 1.4-.3.6 0 1.1.1 1.5.2.4.2.7.4.9.7.2.3.4.6.5 1.1.1.4.1.9.1 1.4v5.1h-2.3V128c0-.7-.1-1.2-.3-1.5-.2-.3-.6-.5-1.1-.5-.6 0-1.1.2-1.3.5-.3.4-.4 1-.4 1.8v4.3h-2.3v-8.2h2.2zM161.4 131.5c-.3.4-.6.8-1 1-.4.2-.9.3-1.5.3s-1.2-.1-1.6-.4c-.5-.2-.9-.6-1.2-1-.3-.4-.5-.9-.7-1.4-.2-.5-.2-1.1-.2-1.7 0-.6.1-1.1.2-1.6.2-.5.4-1 .7-1.4.3-.4.7-.7 1.1-.9.5-.2 1-.4 1.6-.4.5 0 1 .1 1.4.3.4.2.8.5 1 .9v-4.1h2.3v11.4h-2.1v-1zm-.1-4.1c-.1-.3-.2-.6-.3-.8l-.6-.6c-.2-.1-.6-.2-.9-.2-.4 0-.7.1-.9.2-.3.1-.5.3-.6.6-.2.2-.3.5-.3.8-.1.3-.1.6-.1 1 0 .3 0 .6.1 1s.2.6.4.9c.2.2.4.5.6.6.2.2.5.2.9.2s.7-.1.9-.2c.2-.1.4-.3.6-.6.1-.2.3-.5.3-.9.1-.3.1-.6.1-1-.1-.3-.1-.7-.2-1zM172.1 130.6c.3.3.8.5 1.5.5.5 0 .8-.1 1.2-.3.3-.2.5-.5.6-.7h2c-.3 1-.8 1.7-1.5 2.1-.7.4-1.5.6-2.4.6-.6 0-1.2-.1-1.8-.3-.5-.2-1-.5-1.3-.9-.4-.4-.6-.8-.8-1.4-.2-.5-.3-1.1-.3-1.8 0-.6.1-1.2.3-1.7.2-.5.5-1 .9-1.4.4-.4.8-.7 1.3-.9.5-.2 1.1-.3 1.7-.3.7 0 1.3.1 1.8.4.5.3.9.6 1.3 1.1.3.5.6 1 .7 1.6.1.6.2 1.2.2 1.8h-5.9c0 .7.2 1.2.5 1.6zm2.6-4.4c-.3-.3-.7-.4-1.2-.4-.4 0-.7.1-.9.2-.2.1-.4.3-.6.5l-.3.6c-.1.2-.1.4-.1.5h3.7c-.2-.6-.3-1.1-.6-1.4zM181 124.3v1.1c.3-.5.7-.8 1.1-1 .5-.2.9-.3 1.4-.3.6 0 1.1.1 1.5.2.4.2.7.4.9.7.2.3.4.6.5 1.1.1.4.1.9.1 1.4v5.1h-2.3V128c0-.7-.1-1.2-.3-1.5-.2-.3-.6-.5-1.1-.5-.6 0-1.1.2-1.3.5-.3.4-.4 1-.4 1.8v4.3h-2.3v-8.2h2.2zM190.3 132.5l-2.8-8.2h2.4l1.7 5.6 1.7-5.6h2.2l-2.8 8.2h-2.4zM196.6 123v-1.9h2.3v1.9h-2.3zm2.3 1.3v8.2h-2.3v-8.2h2.3zM202.8 124.3v1.5c.1-.3.2-.5.4-.7l.6-.6c.2-.2.5-.3.7-.4.3-.1.5-.1.8-.1.1 0 .3 0 .5.1v2.1c-.1 0-.2 0-.4-.1h-.4c-.4 0-.8.1-1.1.2-.3.1-.5.3-.7.6-.2.2-.3.5-.4.8-.1.3-.1.7-.1 1v3.7h-2.3v-8.2h2.4zM206.6 126.6c.2-.5.5-1 .9-1.4.4-.4.8-.7 1.3-.9.5-.2 1.1-.3 1.8-.3.6 0 1.2.1 1.8.3.5.2 1 .5 1.3.9.4.4.7.8.9 1.4.2.5.3 1.1.3 1.8s-.1 1.3-.3 1.8c-.2.5-.5 1-.9 1.4-.4.4-.8.7-1.3.9-.5.2-1.1.3-1.8.3-.6 0-1.2-.1-1.8-.3-.5-.2-1-.5-1.3-.9-.4-.4-.7-.8-.9-1.4-.2-.5-.3-1.1-.3-1.8 0-.6.1-1.2.3-1.8zm2.1 2.8c.1.3.2.6.3.8l.6.6c.3.1.6.2 1 .2s.7-.1 1-.2c.3-.1.5-.3.6-.6.2-.2.3-.5.3-.8.1-.3.1-.6.1-1 0-.3 0-.7-.1-1-.1-.3-.2-.6-.3-.8l-.6-.6c-.3-.2-.6-.2-1-.2s-.7.1-1 .2c-.3.2-.5.4-.6.6-.2.2-.3.5-.3.8-.1.3-.1.6-.1 1s0 .7.1 1zM218.5 124.3v1.1c.3-.5.7-.8 1.1-1 .5-.2.9-.3 1.4-.3.6 0 1.1.1 1.5.2.4.2.7.4.9.7.2.3.4.6.5 1.1.1.4.1.9.1 1.4v5.1h-2.3V128c0-.7-.1-1.2-.3-1.5-.2-.3-.6-.5-1.1-.5-.6 0-1.1.2-1.3.5-.3.4-.4 1-.4 1.8v4.3h-2.3v-8.2h2.2zM228 124.3v1.1c.3-.4.7-.8 1.1-1 .4-.2.9-.4 1.4-.4.5 0 1 .1 1.4.3.4.2.8.6 1 1.1.2-.4.6-.7 1-1 .4-.3.9-.4 1.5-.4.4 0 .8.1 1.2.2.4.1.7.3 1 .5.3.2.5.5.6.9.1.4.2.8.2 1.4v5.5h-2.3V127c0-.2-.1-.5-.2-.6-.1-.2-.2-.3-.4-.4-.2-.1-.4-.2-.8-.2-.3 0-.6.1-.8.2-.2.1-.4.3-.5.5-.1.2-.2.4-.2.7 0 .2-.1.5-.1.8v4.6H231v-5.3c0-.2-.1-.5-.1-.7-.1-.2-.2-.4-.4-.5-.2-.1-.5-.2-.8-.2-.1 0-.2 0-.4.1-.2 0-.3.1-.5.3-.2.1-.3.3-.4.6-.1.2-.2.6-.2 1v4.8h-2.3v-8.2h2.1zM242.6 130.6c.3.3.8.5 1.5.5.5 0 .8-.1 1.2-.3.3-.2.5-.5.6-.7h2c-.3 1-.8 1.7-1.5 2.1-.7.4-1.5.6-2.4.6-.6 0-1.2-.1-1.8-.3-.5-.2-1-.5-1.3-.9-.4-.4-.6-.8-.8-1.4-.2-.5-.3-1.1-.3-1.8 0-.6.1-1.2.3-1.7.2-.5.5-1 .9-1.4.4-.4.8-.7 1.3-.9.5-.2 1.1-.3 1.7-.3.7 0 1.3.1 1.8.4.5.3.9.6 1.3 1.1.3.5.6 1 .7 1.6.1.6.2 1.2.2 1.8h-5.9c0 .7.2 1.2.5 1.6zm2.6-4.4c-.3-.3-.7-.4-1.2-.4-.4 0-.7.1-.9.2-.2.1-.4.3-.6.5l-.3.6c-.1.2-.1.4-.1.5h3.7c-.2-.6-.4-1.1-.6-1.4zM251.5 124.3v1.1c.3-.5.7-.8 1.1-1 .5-.2.9-.3 1.4-.3.6 0 1.1.1 1.5.2.4.2.7.4.9.7.2.3.4.6.5 1.1.1.4.1.9.1 1.4v5.1h-2.3V128c0-.7-.1-1.2-.3-1.5-.2-.3-.6-.5-1.1-.5-.6 0-1.1.2-1.3.5-.3.4-.4 1-.4 1.8v4.3h-2.3v-8.2h2.2zM263.3 124.3v1.5h-1.7v4.1c0 .4.1.6.2.8.1.1.4.2.8.2h.7v1.8c-.2 0-.4.1-.6.1h-.7c-.4 0-.7 0-1-.1-.3 0-.6-.1-.8-.3-.2-.1-.4-.3-.6-.6-.1-.3-.2-.6-.2-1v-4.9H258v-1.5h1.4v-2.5h2.3v2.5h1.6zM264.3 126.8c0-.5.2-1 .4-1.3.2-.4.5-.6.9-.8.4-.2.8-.4 1.2-.5.5-.1.9-.1 1.4-.1.4 0 .8 0 1.3.1l1.2.3c.4.2.6.4.9.7.2.3.3.7.3 1.2v4.3c0 .4 0 .7.1 1.1 0 .3.1.6.2.8h-2.3c0-.1-.1-.3-.1-.4 0-.1 0-.3-.1-.4-.4.4-.8.6-1.3.8-.5.1-1 .2-1.5.2-.4 0-.8 0-1.1-.1-.3-.1-.6-.2-.9-.4-.3-.2-.5-.5-.6-.8-.1-.3-.2-.7-.2-1.1 0-.5.1-.9.2-1.2.2-.3.4-.5.6-.7.3-.2.6-.3.9-.4.3-.1.7-.2 1-.2.3-.1.7-.1 1-.1s.6-.1.9-.1c.3-.1.5-.2.6-.3.1-.1.2-.3.2-.5s0-.4-.1-.6c-.1-.1-.2-.3-.3-.3-.1-.1-.3-.1-.5-.2h-.6c-.4 0-.8.1-1.1.3-.3.2-.4.5-.4 1h-2.2zm5.2 1.7c-.1.1-.2.2-.4.2-.1 0-.3.1-.5.1s-.3.1-.5.1-.4 0-.5.1c-.2 0-.3.1-.5.1-.2.1-.3.1-.4.2l-.3.3c-.1.1-.1.3-.1.5s0 .4.1.5l.3.3c.1.1.3.1.4.2h.5c.4 0 .8-.1 1-.2.2-.1.4-.3.5-.5.1-.2.2-.4.2-.6v-1.3zM275.8 121.2v11.4h-2.3v-11.4h2.3zM282.1 123v-1.9h2.3v1.9h-2.3zm2.3 1.3v8.2h-2.3v-8.2h2.3zM288.4 124.3v1.1c.3-.4.7-.8 1.1-1 .4-.2.9-.4 1.4-.4.5 0 1 .1 1.4.3.4.2.8.6 1 1.1.2-.4.6-.7 1-1 .4-.3.9-.4 1.5-.4.4 0 .8.1 1.2.2.4.1.7.3 1 .5.3.2.5.5.6.9.1.4.2.8.2 1.4v5.5h-2.3V127c0-.2-.1-.5-.2-.6-.1-.2-.2-.3-.4-.4-.2-.1-.4-.2-.8-.2-.3 0-.6.1-.8.2-.2.1-.4.3-.5.5-.1.2-.2.4-.2.7 0 .2-.1.5-.1.8v4.6h-2.3v-5.3c0-.2-.1-.5-.1-.7-.1-.2-.2-.4-.4-.5-.2-.1-.5-.2-.8-.2-.1 0-.2 0-.4.1-.2 0-.3.1-.5.3-.2.1-.3.3-.4.6-.1.2-.2.6-.2 1v4.8h-2.3v-8.2h2.3zM302.7 124.3v1.1c.3-.4.6-.8 1.1-1 .4-.2.9-.3 1.4-.3.6 0 1.2.1 1.7.4.5.2.9.6 1.2 1 .3.4.5.9.7 1.4.1.5.2 1.1.2 1.7 0 .6-.1 1.1-.2 1.6s-.4 1-.7 1.4c-.3.4-.7.7-1.1.9-.5.2-1 .4-1.6.4-.5 0-1-.1-1.4-.3-.4-.2-.8-.5-1.1-.9v3.9h-2.3v-11.1h2.1zm3 6.5c.2-.1.5-.3.6-.6.2-.2.3-.5.3-.8.1-.3.1-.6.1-1 0-.3 0-.7-.1-1l-.3-.9c-.2-.2-.4-.5-.6-.6-.2-.2-.6-.2-.9-.2-.4 0-.7.1-.9.2-.2.2-.5.4-.6.6-.2.2-.3.5-.3.8-.1.3-.1.6-.1 1 0 .3 0 .7.1 1 .1.3.2.6.3.8l.6.6c.3.1.6.2.9.2.3.2.6.1.9-.1zM310.2 126.8c0-.5.2-1 .4-1.3.2-.4.5-.6.9-.8.4-.2.8-.4 1.2-.5.5-.1.9-.1 1.4-.1.4 0 .8 0 1.3.1l1.2.3c.4.2.6.4.9.7.2.3.3.7.3 1.2v4.3c0 .4 0 .7.1 1.1 0 .3.1.6.2.8h-2.3c0-.1-.1-.3-.1-.4 0-.1 0-.3-.1-.4-.4.4-.8.6-1.3.8-.5.1-1 .2-1.5.2-.4 0-.8 0-1.1-.1-.3-.1-.6-.2-.9-.4-.3-.2-.5-.5-.6-.8-.1-.3-.2-.7-.2-1.1 0-.5.1-.9.2-1.2.2-.3.4-.5.6-.7.3-.2.6-.3.9-.4.3-.1.7-.2 1-.2.3-.1.7-.1 1-.1s.6-.1.9-.1c.3-.1.5-.2.6-.3.1-.1.2-.3.2-.5s0-.4-.1-.6c-.1-.1-.2-.3-.3-.3-.1-.1-.3-.1-.5-.2h-.6c-.4 0-.8.1-1.1.3-.3.2-.4.5-.4 1h-2.2zm5.3 1.7c-.1.1-.2.2-.4.2-.1 0-.3.1-.5.1s-.3.1-.5.1-.4 0-.5.1c-.2 0-.3.1-.5.1-.2.1-.3.1-.4.2l-.3.3c-.1.1-.1.3-.1.5s0 .4.1.5l.3.3c.1.1.3.1.4.2h.5c.4 0 .8-.1 1-.2.2-.1.4-.3.5-.5.1-.2.2-.4.2-.6v-1.3zM323.4 125.8c-.4 0-.7.1-.9.2l-.6.6c-.2.3-.3.5-.3.9-.1.3-.1.6-.1.9 0 .3 0 .6.1.9.1.3.2.6.3.8.1.2.3.5.6.6.2.2.5.2.9.2.5 0 1-.2 1.2-.5s.5-.7.5-1.2h2.2c-.1 1.1-.6 1.9-1.3 2.5-.7.6-1.6.9-2.7.9-.6 0-1.2-.1-1.7-.3-.5-.2-1-.5-1.3-.9-.4-.4-.6-.8-.8-1.3-.2-.5-.3-1.1-.3-1.7 0-.6.1-1.2.3-1.8.2-.5.5-1 .8-1.4.4-.4.8-.7 1.3-.9s1.1-.3 1.8-.3c.5 0 1 .1 1.4.2.5.1.9.3 1.2.6.4.3.6.6.9 1 .2.4.4.8.4 1.4h-2.2c-.2-.9-.7-1.4-1.7-1.4zM333.1 124.3v1.5h-1.7v4.1c0 .4.1.6.2.8.1.1.4.2.8.2h.7v1.8c-.2 0-.4.1-.6.1h-.7c-.4 0-.7 0-1-.1-.3 0-.6-.1-.8-.3-.2-.1-.4-.3-.6-.6-.1-.3-.2-.6-.2-1v-4.9h-1.4v-1.5h1.4v-2.5h2.3v2.5h1.6z"/></svg>